<?xml version="1.0" encoding="UTF-8"?>
<svg id="Layer_1" data-name="Layer 1" xmlns="http://www.w3.org/2000/svg" viewBox="0 0 128 128">
  <defs>
    <style>
      .cls-1 {
        fill: #e40000;
      }

      .cls-2 {
        fill: #fe6bc3;
      }

      .cls-3 {
        fill: #fd8c00;
      }

      .cls-4 {
        fill: #018021;
      }

      .cls-5 {
        fill: #004dfe;
      }

      .cls-6 {
        fill: #feed00;
      }

      .cls-7 {
        fill: #760188;
      }
    </style>
  </defs>
  <path class="cls-2" d="M126.08,30.64v66.72c0,2.78-.4,5.48-1.14,8.02h0c-3.47,11.96-14.51,20.7-27.58,20.7H30.64c-3.51,0-6.88-.63-9.99-1.79-3.2-1.18-6.14-2.93-8.68-5.11-2.43-2.08-4.52-4.57-6.13-7.35-1.18-2-2.11-4.16-2.77-6.43h0c-.39-1.31-.68-2.66-.86-4.04-.18-1.31-.28-2.64-.28-4V30.64c0-1.36.1-2.69.28-4,.18-1.38.48-2.73.86-4.04.66-2.27,1.59-4.43,2.77-6.43,1.61-2.78,3.7-5.28,6.13-7.35,2.54-2.18,5.48-3.93,8.68-5.11h0c3.11-1.16,6.47-1.79,9.98-1.79h66.72c13.07,0,24.1,8.74,27.58,20.69.75,2.55,1.14,5.25,1.14,8.03Z"/>
  <g>
    <path class="cls-1" d="M124.94,22.61H3.06c.66-2.27,1.59-4.43,2.77-6.43,1.61-2.78,3.7-5.28,6.13-7.35,2.54-2.18,5.48-3.93,8.68-5.11h0c3.11-1.16,6.47-1.79,9.98-1.79h66.72c13.07,0,24.1,8.74,27.58,20.69Z"/>
    <path class="cls-3" d="M126.08,30.64v12.67H1.92v-12.67c0-1.36.1-2.69.28-4,.18-1.38.48-2.73.86-4.04h121.87c.75,2.55,1.14,5.25,1.14,8.03Z"/>
    <rect class="cls-6" x="1.92" y="43.31" width="124.16" height="20.69"/>
    <rect class="cls-4" x="1.92" y="64" width="124.16" height="20.69"/>
    <path class="cls-5" d="M126.08,84.69v12.67c0,2.78-.4,5.48-1.14,8.02h0s-121.87,0-121.87,0h0c-.39-1.31-.68-2.66-.86-4.04-.18-1.31-.28-2.64-.28-4v-12.67h124.16Z"/>
    <path class="cls-7" d="M124.94,105.39c-3.47,11.95-14.51,20.69-27.58,20.69H30.64c-3.51,0-6.88-.63-9.99-1.79-3.2-1.18-6.14-2.93-8.68-5.11-2.43-2.08-4.52-4.57-6.13-7.35-1.18-2-2.11-4.16-2.77-6.43h121.87Z"/>
  </g>
</svg>