<?xml version="1.0" encoding="UTF-8"?>
<svg id="Layer_1" data-name="Layer 1" xmlns="http://www.w3.org/2000/svg" viewBox="0 0 128 128">
  <defs>
    <style>
      .cls-1 {
        fill: #010101;
      }

      .cls-2 {
        fill: #fe6bc3;
      }

      .cls-3 {
        fill: #84006f;
      }

      .cls-4 {
        fill: #f9f9f9;
      }

      .cls-5 {
        fill: #d3d3d3;
      }
    </style>
  </defs>
  <path class="cls-2" d="M126.08,30.64v66.72c0,2.78-.4,5.48-1.14,8.02h0c-3.47,11.96-14.51,20.7-27.58,20.7H30.64c-3.51,0-6.88-.63-9.99-1.79-3.2-1.18-6.14-2.93-8.68-5.11-2.43-2.08-4.52-4.57-6.13-7.35-1.18-2-2.11-4.16-2.77-6.43h0c-.39-1.31-.68-2.66-.86-4.04-.18-1.31-.28-2.64-.28-4V30.64c0-1.36.1-2.69.28-4,.18-1.38.48-2.73.86-4.04.66-2.27,1.59-4.43,2.77-6.43,1.61-2.78,3.7-5.28,6.13-7.35,2.54-2.18,5.48-3.93,8.68-5.11h0c3.11-1.16,6.47-1.79,9.98-1.79h66.72c13.07,0,24.1,8.74,27.58,20.69.75,2.55,1.14,5.25,1.14,8.03Z"/>
  <g>
    <path class="cls-4" d="M31.92,1.92h64.16c16.56,0,30,13.44,30,30v22.42H1.92v-22.42C1.92,15.36,15.36,1.92,31.92,1.92Z"/>
    <path class="cls-5" d="M1.92,73.66h124.16v22.42c0,16.56-13.44,30-30,30H31.92c-16.56,0-30-13.44-30-30v-22.42h0Z"/>
    <rect class="cls-3" x="1.92" y="54.34" width="124.16" height="19.31"/>
    <polygon class="cls-1" points="35.32 64 1.92 32.27 1.92 95.73 35.32 64"/>
  </g>
</svg>