<?xml version="1.0" encoding="UTF-8"?>
<svg xmlns="http://www.w3.org/2000/svg" width="128" height="128" viewBox="0 0 6 6">
  <mask id="h">
    <path
      fill="#fff"
      transform="scale(0.046875)"
      d="M83.2 43.31ZM67.97 14.75c3.26-1.62 8.71-2.74 12.34-3.8 1.19-.36 1.9-1.26 2.91.28 1.73 2.63 3.31 7.38 4.69 10.39.16.37.35.7.53.99.81 1.35 1.44 2.11-1 2.92-3.35 1.12-8.69 2.63-12.12 3.31-.59.13-1.74.29-2.22-.12-.44-.35-2.03-4.21-2.47-5.06-.17-.35-.37-.7-.55-1.05-1.13-2.08-2.35-4.11-3.33-6.27-.18-.73.68-1.32 1.23-1.59Zm-8.66 2.86c1.95-.59 4.61-1.7 5.77.4.13.23.25.48.36.74.07.15.14.3.19.45.22.53.43 1.11.63 1.66.04.14.09.26.15.39.07.2.15.4.22.58 0 .03.02.06.03.09 0 0 0 .03.02.04 0 .02.02.05.02.07s.02.04.03.06c.03.05.05.09.07.14.02.04.03.08.05.12v.03c.03.07.05.14.08.19 0 .02.03.04.04.06 1.03 2.18 2.35 4.28 3.36 6.48.15.48.09 1.06-.44 1.23-2.66.96-5.6 1.52-8.24 2.42-.48.16-1.53.55-1.86.88-.32.34-.39.64-.43 1.09-.1 1.01-.03 2.82.06 3.87.04.43.265 1.029-.036 1.103-.291.094-.334.117-.594-.293-2.54-4.01-5.55-7.78-8.07-11.8-.75-1.19-2.54-3.46-1.21-4.6.16-.13.31-.26.47-.39 2.64-2.12 6.14-4.04 9.33-5Zm1.56 30.98c.66 1.04 1.31 2.08 1.96 3.11.32.51 1.06 1.33.94 1.97-.11.58-1.5.81-2.05.95-2.31.53-7 1.33-9.34 1.47-3.57.22-4.43-1.52-6.47-4.01-2.32-2.79-4.26-5.85-6.39-8.77-1.96-2.67-4.02-4.73-5.4-7.98-.52-1.23-.59-1.46.19-2.64 1.61-2.45 6.39-5.67 9.12-6.66.48-.16 2.15-.66 2.57-.63.56.03.81.44 1.12.84 1.56 2.02 3.07 4.83 4.47 7.01 1.9 2.98 3.65 6.02 5.43 9.06.19.34.39.67.59 1 1.06 1.78 2.16 3.52 3.26 5.28ZM23.49 43.22c.05-.06.09-.12.14-.17 1.12-1.44 2.31-2.73 3.71-3.89 1.03-.84 2.5-2.12 3.93-2.06 1.12.05 2.1 1.48 2.7 2.26 1 1.28 1.88 2.64 2.86 3.95.09.11.17.22.26.34 1.21 1.58 2.49 3.13 3.63 4.77 1.23 1.78 2.4 3.61 3.7 5.34.64.86 2.92 3.2 3.06 4.05.1.57-.16.81-.49 1.2-.93 1.06-2.09 1.88-3.3 2.59-.63.37-1.26.7-1.9 1.03-.7.36-.96.4-1.72.18-2.23-.63-10.43-8.04-12.6-10.02-1.16-1.07-4.83-4.37-5.38-5.61-.73-1.59.46-2.74 1.37-3.89l.06-.09Zm58.94 56.93c.17 1.74.42 3.48.63 5.24.21 1.79.4 3.6.45 5.4.04 1.73.17 3.1-1.64 3.7-4.23 1.37-11.71 2.43-16.2 2.78-5.84.45-11.91.07-17.63-1.24-1.51-.34-2.99-.79-4.45-1.31s-2.86-1.38-4.25-2.09c-.84-.44-.53-2.48-.43-3.27.14-.95.36-1.89.4-2.84 0-.38.02-.76.02-1.13 0-1.77-.13-3.61 0-5.41.23-3.13 1.1-6.67 1.23-9.75.11-2.29-.96-2.89-2.44-4.34-.55-.54-.64-.76-.92-1.08-.04-.04-.08-.08-.12-.13-.6-.59-1.56-1.01-2.19-1.55-2.64-2.27-5.55-5.72-5.85-9.32L27.68 70.3c-.67-2.05-1.03-4.17-1.47-6.24v-.18s-.15-.07-.18-.17c-.46-2.22-.86-3.78-.72-6.13.04-.56.12-2.54.96-2.36l9.67 7.71.87 1.06.21.25c.57.23 1.79 1.38 2.38 1.43.56.05 1.29 0 1.84-.14.82-.21 1.64-1.05 2.34-1.29.09-.09.17-.16.26-.25 2.44-2.33 5.46-4.75 8.78-5.53 2.84-.66 6.83-1.15 9.76-1.32 1.79-.48 3.67-.33 5.5-.35-1.13 1.22-2.52 2.09-3.81 3.15-.72.59-1.44 1.19-2.15 1.78-.88.73-1.71 1.46-2.49 2.26-.47.47-.91.95-1.35 1.45-2.25 2.64-4.5 5.31-6.13 8.39-1.51 2.89-2.02 5.95-2.34 9.16v.12c-.05.49-.35 1.01-.34 1.52v.05c.14 2.46 5.65 2.22 7.34 1.9 1.04.16.53 2.09.41 2.88-.85 5.28-2.45 10.82-3.66 15.92-.07.27-.14.55-.19.83-.03.13-.19 2.13-.18 2.27.02.16.21.08.36.09l1.22-3.19 7.95-20.7.22-.58c-.13-.12-.24-.23-.36-.36l-1.42-.35h-.35c-4.55-.41-5.24-.52-5.86-.71-1.03-.31-1.13-.78-1.05-1.83.13-1.86 1.47-4.96 2.29-6.68.27-.57.47-1.16.82-1.76 1.71-2.94 3.94-5.56 6.43-7.88.19-.18.39-.36.59-.54 2.36-2.16 4.88-4.24 7.54-6.01.24-.16.49-.33.73-.48 2.77-1.77 5.74-3.22 8.9-4.17 1.48-.44 3.01-.78 4.54-.96.81-.1 3.76-.07 4.16-.27.08-.03.19-.16.17-.26-.17-.24-4.46-.65-5.19-.93-2.65-1.01-1.45-4.55-.48-6.38.19-.35.75-.72.87-1.2.09-.34.08-.88.17-1.24-.26-.24-1.28.53-2.08 1.23-.44.38-.8.74-.94.89-1.11 1.74-4.28 3.1-6.31 3.03-4.14-.16-7.94-1.78-11.44-3.73-.16-.09-.3-.15-.45-.18-.56-.18-1.01-.17-1.18-1.03-.23-1.2-.48-2.41-.62-3.63-.134-1.242-.69-3.15.49-3.93.32-.2.7-.31 1.07-.41 7.37-1.99 14.64-4.36 22-6.36 1.12-.3 2.22-.59 3.35-.86 4.02-1 6.06-1.12 7.81 3.01.93 2.19 1.88 5.16 2.65 7.47.63 1.92 1.01 3.87 1.75 5.74.09.23.18.46.28.69.93 2.09 1.45 4.37 2.11 6.55.4 1.27.79 2.53 1.18 3.79.19.63.4 1.26.6 1.89.16.5.64 1.38.61 1.89-.07.94-.5 1.74-1.04 2.48-1.02 1.44-2.38 2.29-3.67 3.4-.11.09-.2.17-.31.27-1.01.9-1.77 2.11-2.71 3.11-1.03 1.12-2.09 2.18-3.16 3.26-1.99 2-4.07 3.89-6.23 5.72-.51.44-1.2 1.49-1.72 2.01-2.1 2.07-4.46 3.88-6.3 6.22v.1c.24 5.18.87 10.32 1.38 15.46h-1.2Z" />
  </mask>
  <mask id="m">
    <rect width="6" height="6" fill="#fff" rx="1.3875" />
  </mask>
  <g mask="url(#m)" transform="scale(0.97)" transform-origin="center">
    <rect width="6" height="6" fill="#760188" />
    <rect width="6" height="5" fill="#004dfe" />
    <rect width="6" height="4" fill="#018021" />
    <rect width="6" height="3" fill="#feed00" />
    <rect width="6" height="2" fill="#fd8c00" />
    <rect width="6" height="1" fill="#e40000" />
    <circle cx="3" cy="3" r="2.875" />
    <g mask="url(#h)">
      <rect width="6" height="6" fill="#3b2518" />
      <rect width="6" height="5" fill="#5d3a1c" />
      <rect width="6" height="4" fill="#86311a" />
      <rect width="6" height="3" fill="#a96220" />
      <rect width="6" height="2" fill="#e0a676" />
      <rect width="6" height="1" fill="#fafafa" />  
    </g>
  </g>
</svg>