<?xml version="1.0" encoding="UTF-8"?>
<!-- https://commons.wikimedia.org/wiki/File:Two-Spirit_Flag.svg -->
<svg xmlns="http://www.w3.org/2000/svg" width="128" height="128" viewBox="0 0 300 300">
  <style type="text/css">
    .st0{fill:#770088;}
    .st1{fill:#004CFF;}
    .st2{fill:#028121;}
    .st3{fill:#FFEE00;}
    .st4{fill:#FF8D00;}
    .st5{fill:#E50000;}
    .st6{fill:#FFFFFF;}
  </style>
  <mask id="m">
    <rect width="300" height="300" fill="#fff" rx="69.375" />
  </mask>
  <g mask="url(#m)" transform="scale(0.97)" transform-origin="center">
    <g id="Rainbow">
      <path class="st0" d="M0,0h300v300H0V0z" />
      <path class="st1" d="M0,0h300v250H0V0z" />
      <path class="st2" d="M0,0h300v200H0V0z" />
      <path class="st3" d="M0,0h300v150H0V0z" />
      <path class="st4" d="M0,0h300v100H0V0z" />
      <path class="st5" d="M0,0h300v50H0V0z" />
    </g>
    <g id="Feathers" transform="translate(-100)">
      <path
        d="M322.06,222.55c-0.06,0.61-0.13,1.23-0.18,1.84c-0.7,8.74-3.36,16.87-7.66,24.49c-0.28,0.5-0.59,0.98-0.83,1.5   c-0.15,0.33-0.38,0.44-0.7,0.5c-2.09,0.38-4.17,0.22-6.22-0.25c-4.29-0.97-8-3.1-11.4-5.83c-4.94-3.96-8.84-8.82-12.22-14.12   c-4.23-6.64-7.9-13.59-11.36-20.66c-6.9-14.11-12.95-28.58-18.33-43.33c-1.23-3.36-2.39-6.75-3.6-10.18   c-0.05,0.15-0.1,0.27-0.14,0.4c-6,19.69-13.21,38.93-21.85,57.62c-3.11,6.73-6.43,13.34-10.28,19.68c-2.67,4.4-5.72,8.51-9.43,12.1   c-3.29,3.18-6.93,5.85-11.27,7.45c-2.22,0.82-4.51,1.31-6.89,1.23c-0.47-0.02-0.94-0.07-1.41-0.11c-0.41-0.04-0.67-0.23-0.9-0.61   c-2.27-3.76-4.3-7.64-5.82-11.78c-1.46-3.96-2.49-8.03-3.08-12.2c-0.59-4.2-0.6-8.44-0.46-12.67c0.09-2.59,0.23-5.19,0.46-7.77   c0.24-2.71,0.53-5.43,0.96-8.11c0.7-4.31,1.43-8.62,2.34-12.89c1.96-9.28,4.7-18.33,7.96-27.23c5.35-14.64,11.93-28.68,20.14-41.95   c3.15-5.09,6.53-10.01,10.49-14.51c0.98-1.12,2.02-2.18,3.05-3.27c-0.58-0.78-1.2-1.56-1.77-2.37c-3.09-4.43-5.05-9.32-5.86-14.67   c-2.72-17.98,8.94-35.03,26.71-39c1.66-0.37,3.38-0.5,5.08-0.74c0.16-0.02,0.32-0.06,0.48-0.09c1.34,0,2.68,0,4.02,0   c0.16,0.03,0.32,0.07,0.48,0.09c1.9,0.29,3.83,0.45,5.69,0.9c17.3,4.15,28.68,20.93,26.16,38.5c-0.87,6.02-3.14,11.45-6.84,16.28   c-0.32,0.41-0.64,0.82-0.96,1.23c4.18,4.57,7.8,9.52,11.14,14.68c11.66,18.02,20.51,37.35,26.84,57.84   c2.04,6.59,3.73,13.27,4.94,20.06c0.6,3.37,1.13,6.75,1.55,10.15c0.37,2.94,0.55,5.91,0.8,8.87c0.08,0.92,0.13,1.85,0.19,2.77   C322.06,218.43,322.06,220.49,322.06,222.55z M231.49,95.19c0.18-0.06,0.37-0.09,0.53-0.18c1.44-0.72,2.85-1.52,4.33-2.14   c1.19-0.5,2.47-0.78,3.71-1.15c0.01,0.02,0.01-0.02-0.01-0.03c-0.08-0.05-0.17-0.1-0.26-0.14c-1.4-0.74-2.64-1.69-3.71-2.85   c-0.87-0.95-1.65-1.95-1.93-3.24c-0.43-1.98-0.42-3.95,0.06-5.92c0.08-0.33,0.2-0.66,0.3-0.99c0.11,0.19,0.1,0.35,0.11,0.51   c0.08,1.02,0.13,2.05,0.26,3.07c0.18,1.38,0.92,2.57,1.4,3.85c0.83,2.22,2.2,4.03,3.96,5.56c0.11,0.09,0.24,0.22,0.36,0.22   c0.59-0.02,1.17-0.07,1.82-0.12c-0.56-0.3-1.07-0.56-1.55-0.85c-0.83-0.51-1.36-1.25-1.6-2.19c-0.14-0.55-0.01-1.05,0.44-1.41   c0.29-0.23,0.6-0.5,0.94-0.6c0.84-0.24,1.69-0.52,2.55-0.56c1.16-0.05,2.33,0.11,3.56,0.18c-3.81-5.81-7.62-11.61-11.46-17.45   c0.48-0.37,0.94-0.74,1.42-1.07c0.66-0.45,0.7-0.43,1.16,0.2c0.16,0.22,0.33,0.45,0.47,0.68c3.42,5.46,6.84,10.92,10.26,16.38   c0.1,0.16,0.2,0.31,0.33,0.51c0.12-0.21,0.2-0.35,0.29-0.49c2.29-3.89,4.56-7.8,6.87-11.68c0.72-1.22,1.52-2.4,2.28-3.6   c0.16-0.25,0.35-0.33,0.61-0.16c0.61,0.4,1.21,0.81,1.82,1.22c-2.69,4.32-5.33,8.56-7.98,12.83c0.78-0.08,1.49-0.18,2.2-0.22   c0.58-0.04,1.01,0.25,1.25,0.77c0.12,0.26,0.2,0.55,0.25,0.84c0.35,1.86-0.31,3.14-2.01,3.91c-0.13,0.06-0.26,0.13-0.38,0.2   c0.93,0.07,1.83,0.09,2.71,0.22c2.48,0.35,4.77,1.28,6.97,2.45c3.59,1.93,6.75,4.45,9.72,7.22c0.34,0.32,0.68,0.64,1.02,0.96   c10.04-11.87,10.22-31.02-2.53-43.25c-12.35-11.85-32.15-11.79-44.42,0.49c-12.28,12.29-11.89,31.14-2.04,42.73   c0.05-0.03,0.11-0.07,0.16-0.11c1.86-1.43,3.72-2.86,5.58-4.3c0.09-0.07,0.14-0.2,0.21-0.3L231.49,95.19z M206.22,185.8   c0.69,0.34,1.23,0.8,1.64,1.4c0.9,1.32,2.07,2.35,3.4,3.2c3.54,2.24,7.48,3.05,11.59,3.22c3.8,0.16,7.56-0.28,11.28-1.05   c0.34-0.07,0.5-0.21,0.61-0.52c0.45-1.19,0.93-2.36,1.38-3.55c5.84-15.17,11.07-30.55,14.98-46.34c1.08-4.36,1.98-8.77,2.79-13.19   c0.54-2.93,0.9-5.9,1.14-8.87c0.18-2.2,0.18-4.45,0-6.65c-0.26-3.02-0.96-5.98-1.82-8.89c-0.74-2.49-1.62-4.92-3.12-7.08   c-0.67-0.96-1.43-1.84-2.52-2.34c-0.88-0.41-1.95-0.1-2.49,0.7c-5.2,7.75-9.89,15.81-14.25,24.06   c-5.56,10.52-10.49,21.33-14.66,32.47c-2.12,5.67-4.1,11.4-5.69,17.25c-1.24,4.55-2.3,9.15-3.43,13.73   c-0.19,0.79-0.61,1.17-1.21,1.04c-0.61-0.13-0.86-0.64-0.69-1.43c0.39-1.74,0.76-3.48,1.17-5.21c1.92-8.09,4.37-16.03,7.21-23.84   c4.66-12.82,10.32-25.19,16.79-37.19c4.07-7.55,8.42-14.94,13.21-22.05c0.25-0.37,0.17-0.6-0.26-0.63   c-0.78-0.05-1.57-0.12-2.34-0.05c-2.21,0.21-4.23,1.02-6.17,2.05c-3.78,2-6.99,4.73-10.01,7.71c-3.81,3.76-6.99,8.02-9.96,12.44   c-6.67,9.92-12.18,20.47-17,31.39c-4.95,11.2-9.06,22.71-12.14,34.57c-0.09,0.33-0.05,0.57,0.19,0.79c0.47,0.43,0.91,0.9,1.42,1.28   c2.97,2.2,6.37,2.64,9.92,2.2c1.7-0.21,3.38-0.68,5.06-1.04c0.71-0.15,1.42-0.24,2.14-0.1c-0.1,0.34-0.19,0.62-0.26,0.91   c-1.1,4.85-2.23,9.7-3.29,14.57c-1.64,7.55-3.21,15.11-4.21,22.78c-0.2,1.52-0.3,3.05-0.42,4.58c-0.05,0.65,0.34,1.09,0.91,1.12   c0.57,0.03,1-0.37,1.03-1c0.18-3.56,0.67-7.09,1.35-10.59c1.48-7.56,3.03-15.11,4.6-22.65C204.75,191.93,205.5,188.9,206.22,185.8z    M294.68,181.75c0.87-0.18,1.72-0.06,2.56,0.16c3.06,0.79,6.14,1.21,9.3,0.64c2.56-0.47,4.78-1.57,6.54-3.54   c0.25-0.28,0.32-0.53,0.21-0.91c-4.3-14.83-10.12-29.05-17.26-42.73c-4.96-9.5-10.47-18.66-17.09-27.12   c-3.34-4.26-7.06-8.14-11.38-11.42c-2.6-1.97-5.35-3.68-8.47-4.71c-1.78-0.59-3.6-0.94-5.48-0.64c-0.67,0.11-0.75,0.29-0.38,0.83   c2.16,3.21,4.38,6.39,6.47,9.65c7.12,11.13,13.45,22.7,19,34.7c5.73,12.4,10.54,25.14,14.01,38.37c0.41,1.56,0.79,3.13,1.17,4.71   c0.14,0.58-0.17,1.07-0.71,1.2c-0.52,0.12-0.99-0.17-1.16-0.73c-0.04-0.14-0.07-0.29-0.11-0.43c-0.78-2.97-1.51-5.95-2.35-8.9   c-3.34-11.62-7.71-22.86-12.79-33.82c-4.94-10.65-10.49-20.98-16.73-30.92c-2.72-4.34-5.64-8.57-8.47-12.84   c-0.12-0.19-0.26-0.46-0.44-0.5c-0.87-0.22-1.76-0.47-2.5,0.32c0.3,0.19,0.63,0.37,0.94,0.58c1.51,1.06,2.54,2.52,3.4,4.11   c1.57,2.89,2.54,6,3.22,9.19c0.47,2.21,0.91,4.44,1.16,6.69c0.34,3.03,0.07,6.07-0.24,9.09c-0.42,4.02-1.13,8-1.94,11.96   c-1.22,5.92-2.74,11.76-4.38,17.58c-0.05,0.18-0.06,0.39-0.01,0.56c0.66,2.01,1.32,4.02,2.01,6.02   c3.55,10.29,7.48,20.43,11.74,30.44c0.14,0.32,0.31,0.48,0.65,0.54c4.09,0.69,8.18,1.07,12.33,0.65c2.64-0.27,5.22-0.82,7.65-1.9   c2.48-1.11,4.67-2.59,6.2-4.92c0.35-0.54,0.93-0.93,1.47-1.47c0.09,0.35,0.13,0.54,0.18,0.72c2.32,8.66,4.51,17.35,6.38,26.12   c0.89,4.18,1.58,8.41,2.33,12.62c0.17,0.98,0.2,1.98,0.32,2.97c0.07,0.58,0.51,0.91,1.05,0.87c0.52-0.05,0.87-0.44,0.87-1   c0-0.29-0.01-0.59-0.06-0.88c-0.49-3.18-0.89-6.37-1.5-9.53c-1.71-8.85-3.88-17.6-6.12-26.33   C295.75,185.77,295.22,183.78,294.68,181.75z" />
      <path class="st6"
        d="M206.22,185.8c-0.72,3.1-1.48,6.13-2.11,9.18c-1.57,7.54-3.12,15.09-4.6,22.65   c-0.68,3.49-1.18,7.02-1.35,10.59c-0.03,0.63-0.45,1.04-1.03,1c-0.56-0.03-0.96-0.47-0.91-1.12c0.12-1.53,0.22-3.06,0.42-4.58   c1-7.67,2.56-15.23,4.21-22.78c1.06-4.86,2.19-9.71,3.29-14.57c0.06-0.29,0.16-0.56,0.26-0.91c-0.72-0.15-1.43-0.06-2.14,0.1   c-1.69,0.36-3.36,0.83-5.06,1.04c-3.54,0.44-6.94,0-9.92-2.2c-0.51-0.38-0.95-0.85-1.42-1.28c-0.24-0.22-0.28-0.45-0.19-0.79   c3.08-11.86,7.19-23.37,12.14-34.57c4.82-10.92,10.33-21.47,17-31.39c2.97-4.42,6.16-8.69,9.96-12.44   c3.02-2.98,6.24-5.71,10.01-7.71c1.94-1.03,3.97-1.84,6.17-2.05c0.77-0.07,1.56-0.01,2.34,0.05c0.43,0.03,0.51,0.26,0.26,0.63   c-4.79,7.12-9.14,14.5-13.21,22.05c-6.47,12-12.13,24.37-16.79,37.19c-2.84,7.81-5.29,15.75-7.21,23.84   c-0.41,1.73-0.78,3.47-1.17,5.21c-0.18,0.79,0.07,1.3,0.69,1.43c0.6,0.13,1.01-0.25,1.21-1.04c1.13-4.58,2.19-9.18,3.43-13.73   c1.59-5.85,3.56-11.57,5.69-17.25c4.17-11.15,9.1-21.95,14.66-32.47c4.36-8.25,9.05-16.3,14.25-24.06c0.54-0.8,1.61-1.11,2.49-0.7   c1.09,0.5,1.85,1.38,2.52,2.34c1.5,2.16,2.38,4.59,3.12,7.08c0.86,2.91,1.56,5.87,1.82,8.89c0.19,2.2,0.18,4.45,0,6.65   c-0.24,2.97-0.6,5.94-1.14,8.87c-0.82,4.42-1.71,8.83-2.79,13.19c-3.91,15.79-9.15,31.16-14.98,46.34   c-0.46,1.19-0.94,2.36-1.38,3.55c-0.12,0.31-0.28,0.45-0.61,0.52c-3.72,0.77-7.48,1.21-11.28,1.05c-4.11-0.17-8.05-0.98-11.59-3.22   c-1.34-0.85-2.51-1.87-3.4-3.2C207.45,186.6,206.91,186.14,206.22,185.8z" />
      <path class="st6"
        d="M294.68,181.75c0.53,2.03,1.06,4.02,1.58,6.01c2.24,8.73,4.42,17.48,6.12,26.33c0.61,3.16,1.01,6.35,1.5,9.53   c0.04,0.29,0.06,0.59,0.06,0.88c0,0.56-0.35,0.96-0.87,1c-0.54,0.05-0.98-0.29-1.05-0.87c-0.12-0.99-0.15-1.99-0.32-2.97   c-0.75-4.21-1.44-8.43-2.33-12.62c-1.87-8.77-4.06-17.46-6.38-26.12c-0.05-0.19-0.09-0.37-0.18-0.72   c-0.55,0.54-1.12,0.93-1.47,1.47c-1.53,2.33-3.72,3.81-6.2,4.92c-2.43,1.09-5,1.63-7.65,1.9c-4.15,0.42-8.24,0.04-12.33-0.65   c-0.35-0.06-0.52-0.22-0.65-0.54c-4.26-10.01-8.19-20.15-11.74-30.44c-0.69-2-1.35-4.01-2.01-6.02c-0.06-0.17-0.04-0.39,0.01-0.56   c1.64-5.81,3.16-11.66,4.38-17.58c0.82-3.96,1.52-7.94,1.94-11.96c0.32-3.03,0.59-6.06,0.24-9.09c-0.25-2.25-0.69-4.48-1.16-6.69   c-0.69-3.19-1.65-6.3-3.22-9.19c-0.86-1.59-1.89-3.05-3.4-4.11c-0.31-0.21-0.63-0.4-0.94-0.58c0.74-0.79,1.63-0.54,2.5-0.32   c0.18,0.05,0.32,0.31,0.44,0.5c2.83,4.27,5.75,8.5,8.47,12.84c6.24,9.94,11.79,20.27,16.73,30.92c5.09,10.96,9.46,22.2,12.79,33.82   c0.85,2.95,1.57,5.93,2.35,8.9c0.04,0.14,0.07,0.29,0.11,0.43c0.17,0.56,0.64,0.85,1.16,0.73c0.54-0.13,0.86-0.62,0.71-1.2   c-0.38-1.57-0.76-3.14-1.17-4.71c-3.47-13.23-8.28-25.97-14.01-38.37c-5.54-12-11.88-23.56-19-34.7c-2.09-3.26-4.3-6.43-6.47-9.65   c-0.37-0.54-0.29-0.72,0.38-0.83c1.89-0.3,3.7,0.06,5.48,0.64c3.12,1.03,5.87,2.74,8.47,4.71c4.32,3.28,8.05,7.16,11.38,11.42   c6.62,8.46,12.13,17.62,17.09,27.12c7.15,13.68,12.96,27.9,17.26,42.73c0.11,0.38,0.04,0.63-0.21,0.91   c-1.76,1.96-3.98,3.07-6.54,3.54c-3.15,0.57-6.24,0.15-9.3-0.64C296.4,181.69,295.55,181.57,294.68,181.75z" />
      <path class="st6"
        d="M231.5,95.18c-0.07,0.1-0.12,0.23-0.21,0.3c-1.86,1.44-3.72,2.87-5.58,4.3c-0.05,0.04-0.11,0.07-0.16,0.11   c-9.85-11.59-10.24-30.45,2.04-42.73c12.27-12.28,32.07-12.34,44.42-0.49c12.74,12.23,12.56,31.38,2.53,43.25   c-0.34-0.32-0.68-0.64-1.02-0.96c-2.97-2.78-6.12-5.29-9.72-7.22c-2.2-1.18-4.48-2.1-6.97-2.45c-0.89-0.12-1.78-0.15-2.71-0.22   c0.13-0.07,0.25-0.14,0.38-0.2c1.7-0.77,2.37-2.05,2.01-3.91c-0.05-0.29-0.13-0.57-0.25-0.84c-0.24-0.52-0.67-0.81-1.25-0.77   c-0.71,0.05-1.42,0.14-2.2,0.22c2.65-4.27,5.29-8.51,7.98-12.83c-0.61-0.41-1.22-0.82-1.82-1.22c-0.26-0.17-0.45-0.09-0.61,0.16   c-0.76,1.2-1.55,2.38-2.28,3.6c-2.3,3.89-4.58,7.79-6.87,11.68c-0.08,0.14-0.16,0.28-0.29,0.49c-0.13-0.2-0.23-0.35-0.33-0.51   c-3.42-5.46-6.84-10.92-10.26-16.38c-0.15-0.23-0.31-0.46-0.47-0.68c-0.46-0.63-0.5-0.65-1.16-0.2c-0.48,0.33-0.94,0.7-1.42,1.07   c3.83,5.84,7.64,11.64,11.46,17.45c-1.23-0.07-2.4-0.24-3.56-0.18c-0.86,0.04-1.72,0.32-2.55,0.56c-0.34,0.1-0.65,0.37-0.94,0.6   c-0.45,0.36-0.58,0.85-0.44,1.41c0.24,0.94,0.77,1.69,1.6,2.19c0.48,0.29,0.99,0.55,1.55,0.85c-0.64,0.04-1.23,0.1-1.82,0.12   c-0.12,0-0.26-0.12-0.36-0.22c-1.76-1.54-3.13-3.35-3.96-5.56c-0.48-1.28-1.22-2.47-1.4-3.85c-0.13-1.02-0.18-2.05-0.26-3.07   c-0.01-0.16,0-0.32-0.11-0.51c-0.1,0.33-0.22,0.65-0.3,0.99c-0.48,1.97-0.49,3.94-0.06,5.92c0.28,1.3,1.06,2.3,1.93,3.24   c1.07,1.17,2.31,2.11,3.71,2.85c0.09,0.05,0.17,0.09,0.26,0.14c0.02,0.01,0.02,0.05,0.01,0.03c-1.24,0.38-2.52,0.66-3.71,1.15   c-1.48,0.62-2.89,1.42-4.33,2.14c-0.17,0.08-0.35,0.12-0.53,0.18c-0.13-0.15-0.25-0.3-0.39-0.43c-3.48-3.15-5.21-7.19-5.9-11.74   c-0.38-2.52-0.05-5.01,0.46-7.48c0.11-0.53,0.22-1.07,0.33-1.6c-0.16,0.1-0.24,0.22-0.3,0.35c-1.08,2.49-1.79,5.07-2.03,7.77   c-0.12,1.45-0.14,2.92,0.39,4.31c1.4,3.65,3.79,6.51,7.05,8.67C231.22,95.11,231.37,95.13,231.5,95.18z M260.95,60.55   c0.39,0.08,0.79,0.15,1.18,0.24c0.41,0.1,0.82,0.21,1.22,0.35c3.63,1.26,6.13,3.8,7.98,7.08c1.27,2.25,1.92,4.69,2.47,7.19   c1.5,6.83,0.38,13.09-3.98,18.67c-0.04,0.05-0.05,0.13-0.12,0.28c0.14-0.1,0.2-0.13,0.24-0.18c0.13-0.12,0.26-0.25,0.38-0.38   c4.65-5.15,6.21-11.26,5.41-18.02c-0.43-3.6-2.04-6.76-4.26-9.59c-1.73-2.21-3.85-3.94-6.5-4.96   C263.68,60.74,262.35,60.46,260.95,60.55z M257.72,64.64c-0.14-0.16-0.18-0.22-0.23-0.26c-0.08-0.08-0.17-0.15-0.26-0.22   c-1.5-1.16-3.16-2.03-4.98-2.56c-1.65-0.48-3.34-0.85-5.07-0.5c-3,0.61-5.66,1.96-8.03,3.88c-0.19,0.16-0.37,0.34-0.55,0.51   c0.21,0,0.36-0.08,0.51-0.16c1.57-0.85,3.19-1.61,4.94-1.95c1.5-0.29,3.04-0.38,4.56-0.57c2.28-0.28,4.5-0.04,6.64,0.79   C256.05,63.91,256.81,64.26,257.72,64.64z M248.82,53.5c0.01,0.03,0.02,0.05,0.03,0.08c0.09,0,0.19,0.01,0.28,0   c2.07-0.21,4.14-0.33,6.21-0.07c1.33,0.16,2.64,0.45,3.96,0.61c2.92,0.34,5.59,1.27,7.91,3.12c0.18,0.14,0.36,0.27,0.54,0.4   c-0.08-0.26-0.21-0.45-0.36-0.62c-1.23-1.45-2.73-2.57-4.43-3.41c-1.57-0.77-3.17-1.45-4.97-1.51c-2.78-0.08-5.5,0.31-8.17,1.05   C249.48,53.26,249.15,53.39,248.82,53.5z" />
      <path
        d="M260.95,60.55c1.4-0.09,2.72,0.19,4.01,0.69c2.65,1.02,4.77,2.75,6.5,4.96c2.22,2.84,3.84,5.99,4.26,9.59   c0.8,6.76-0.76,12.86-5.41,18.02c-0.12,0.13-0.25,0.26-0.38,0.38c-0.05,0.04-0.1,0.08-0.24,0.18c0.06-0.16,0.08-0.23,0.12-0.28   c4.36-5.58,5.48-11.84,3.98-18.67c-0.55-2.5-1.2-4.95-2.47-7.19c-1.85-3.28-4.35-5.82-7.98-7.08c-0.4-0.14-0.81-0.25-1.22-0.35   C261.74,60.7,261.34,60.63,260.95,60.55z" />
      <path
        d="M231.5,95.18c-0.13-0.05-0.28-0.07-0.4-0.14c-3.25-2.15-5.64-5.01-7.05-8.67c-0.53-1.39-0.51-2.86-0.39-4.31   c0.23-2.7,0.95-5.29,2.03-7.77c0.06-0.13,0.13-0.25,0.3-0.35c-0.11,0.53-0.22,1.07-0.33,1.6c-0.51,2.47-0.84,4.97-0.46,7.48   c0.69,4.55,2.42,8.59,5.9,11.74c0.14,0.13,0.26,0.29,0.39,0.43C231.49,95.19,231.5,95.18,231.5,95.18z" />
      <path
        d="M257.72,64.64c-0.91-0.38-1.67-0.74-2.46-1.04c-2.14-0.83-4.36-1.06-6.64-0.79c-1.52,0.18-3.06,0.28-4.56,0.57   c-1.75,0.34-3.37,1.1-4.94,1.95c-0.15,0.08-0.3,0.16-0.51,0.16c0.18-0.17,0.36-0.35,0.55-0.51c2.37-1.93,5.03-3.27,8.03-3.88   c1.73-0.35,3.41,0.02,5.07,0.5c1.82,0.53,3.48,1.4,4.98,2.56c0.09,0.07,0.18,0.14,0.26,0.22   C257.54,64.42,257.58,64.48,257.72,64.64z" />
      <path
        d="M248.82,53.5c0.33-0.11,0.66-0.24,0.99-0.34c2.67-0.75,5.39-1.14,8.17-1.05c1.8,0.05,3.4,0.73,4.97,1.51   c1.7,0.84,3.2,1.96,4.43,3.41c0.15,0.17,0.28,0.36,0.36,0.62c-0.18-0.13-0.36-0.26-0.54-0.4c-2.31-1.85-4.99-2.78-7.91-3.12   c-1.33-0.16-2.64-0.45-3.96-0.61c-2.07-0.26-4.14-0.14-6.21,0.07c-0.09,0.01-0.19,0-0.28,0C248.84,53.56,248.83,53.53,248.82,53.5z   " />
    </g>
  </g>
</svg>