<?xml version="1.0" encoding="UTF-8"?>
<svg id="Layer_1" data-name="Layer 1" xmlns="http://www.w3.org/2000/svg" viewBox="0 0 128 128">
  <defs>
    <style>
      .cls-1 {
        fill: #fe6bc3;
      }

      .cls-2 {
        fill: #fd8c00;
      }

      .cls-3 {
        fill: #119f0b;
      }

      .cls-4 {
        fill: #0644b3;
      }

      .cls-5 {
        fill: #fe0000;
      }

      .cls-6 {
        fill: #ffe500;
      }

      .cls-7 {
        fill: #c22edc;
      }

      .cls-8 {
        fill: #784f17;
      }
    </style>
  </defs>
  <path class="cls-1" d="M128,29.61v68.78c0,2.87-.41,5.65-1.18,8.27h0c-.54,1.87-1.26,3.65-2.14,5.34-4.92,9.5-14.85,16-26.29,16H29.61c-3.62,0-7.09-.65-10.3-1.85-3.3-1.22-6.33-3.02-8.95-5.27-2.51-2.14-4.66-4.71-6.32-7.58-.25-.42-.49-.86-.72-1.3-.88-1.68-1.6-3.47-2.14-5.33h0c-.4-1.35-.7-2.74-.89-4.16-.19-1.35-.29-2.72-.29-4.12V29.61c0-1.4.1-2.77.29-4.12.19-1.42.49-2.81.89-4.16.54-1.86,1.26-3.65,2.14-5.33.23-.44.47-.88.72-1.3,1.66-2.87,3.81-5.44,6.32-7.58,2.62-2.25,5.65-4.05,8.95-5.27h0c3.21-1.2,6.67-1.85,10.29-1.85h68.78c11.44,0,21.37,6.5,26.29,16,.88,1.69,1.6,3.47,2.14,5.33.77,2.63,1.18,5.41,1.18,8.28Z"/>
  <g>
    <path d="M124.68,16H3.32c.23-.44.47-.88.72-1.3,1.66-2.87,3.81-5.44,6.32-7.58,2.62-2.25,5.65-4.05,8.95-5.27h0c3.21-1.2,6.67-1.85,10.29-1.85h68.78c11.44,0,21.37,6.5,26.29,16Z"/>
    <path class="cls-8" d="M128,29.61v2.39H0v-2.39c0-1.4.1-2.77.29-4.12.19-1.42.49-2.81.89-4.16.54-1.86,1.26-3.65,2.14-5.33h121.36c.88,1.69,1.6,3.47,2.14,5.33.77,2.63,1.18,5.41,1.18,8.28Z"/>
    <rect class="cls-5" y="32" width="128" height="16"/>
    <rect class="cls-2" y="48" width="128" height="16"/>
    <rect class="cls-6" y="64" width="128" height="16"/>
    <rect class="cls-3" y="80" width="128" height="16"/>
    <path class="cls-4" d="M128,96v2.39c0,2.87-.41,5.65-1.18,8.27h0c-.54,1.87-1.26,3.65-2.14,5.34H3.32c-.88-1.68-1.6-3.47-2.14-5.33h0c-.4-1.35-.7-2.74-.89-4.16-.19-1.35-.29-2.72-.29-4.12v-2.39h128Z"/>
    <path class="cls-7" d="M124.68,112c-4.92,9.5-14.85,16-26.29,16H29.61c-3.62,0-7.09-.65-10.3-1.85-3.3-1.22-6.33-3.02-8.95-5.27-2.51-2.14-4.66-4.71-6.32-7.58-.25-.42-.49-.86-.72-1.3h121.36Z"/>
  </g>
</svg>