<?xml version="1.0" encoding="UTF-8"?>
<svg id="Layer_1" data-name="Layer 1" xmlns="http://www.w3.org/2000/svg" viewBox="0 0 128 128">
  <defs>
    <style>
      .cls-1 {
        fill: #fe6bc3;
      }

      .cls-2 {
        fill: #009ee2;
      }

      .cls-3 {
        fill: #fefefe;
      }

      .cls-4 {
        fill: #e40052;
      }

      .cls-5 {
        fill: #340d46;
      }
    </style>
  </defs>
  <path class="cls-1" d="M126.08,30.64v66.72c0,2.78-.4,5.48-1.14,8.02h0c-3.47,11.96-14.51,20.7-27.58,20.7H30.64c-3.51,0-6.88-.63-9.99-1.79-3.2-1.18-6.14-2.93-8.68-5.11-.57-.48-1.12-.99-1.65-1.52-1.74-1.74-3.25-3.7-4.48-5.83-1.18-2-2.11-4.16-2.77-6.43h0c-.39-1.31-.68-2.66-.86-4.04-.18-1.31-.28-2.64-.28-4V30.64c0-1.36.1-2.69.28-4,.18-1.38.48-2.73.86-4.04.66-2.27,1.59-4.43,2.77-6.43,1.61-2.78,3.7-5.28,6.13-7.35,2.54-2.18,5.48-3.93,8.68-5.11h0c3.11-1.16,6.47-1.79,9.98-1.79h66.72c13.07,0,24.1,8.74,27.58,20.69.75,2.55,1.14,5.25,1.14,8.03Z"/>
  <g>
    <path class="cls-2" d="M126.08,30.64v12.67H1.92v-12.67c0-1.36.1-2.69.28-4,.18-1.38.48-2.73.86-4.04.66-2.27,1.59-4.43,2.77-6.43,1.61-2.78,3.7-5.28,6.13-7.35,2.54-2.18,5.48-3.93,8.68-5.11h0c3.11-1.16,6.47-1.79,9.98-1.79h66.72c13.07,0,24.1,8.74,27.58,20.69.75,2.55,1.14,5.25,1.14,8.03Z"/>
    <rect class="cls-4" x="1.92" y="43.31" width="124.16" height="41.39"/>
    <path class="cls-5" d="M126.08,84.69v12.67c0,2.78-.4,5.48-1.14,8.02h0c-3.47,11.96-14.51,20.7-27.58,20.7H30.64c-3.51,0-6.88-.63-9.99-1.79-3.2-1.18-6.14-2.93-8.68-5.11-.57-.48-1.12-.99-1.65-1.52-1.74-1.74-3.25-3.7-4.48-5.83-1.18-2-2.11-4.16-2.77-6.43h0c-.39-1.31-.68-2.66-.86-4.04-.18-1.31-.28-2.64-.28-4v-12.67h124.16Z"/>
    <path class="cls-3" d="M84.53,43.31l-41.3,41.38L10.32,117.65c-1.74-1.74-3.25-3.7-4.48-5.83-1.18-2-2.11-4.16-2.77-6.43h0c-.39-1.31-.68-2.66-.86-4.04-.18-1.31-.28-2.64-.28-4V30.64c0-1.36.1-2.69.28-4,.18-1.38.48-2.73.86-4.04.66-2.27,1.59-4.43,2.77-6.43,1.61-2.78,3.7-5.28,6.13-7.35,2.54-2.18,5.48-3.93,8.68-5.11h0c3.11-1.16,6.47-1.79,9.98-1.79h14.94l38.96,41.39Z"/>
    <path class="cls-4" d="M39.06,21.36c1.87,1.15,4.04,3.87,5.69,5.46,5.63,5.41,11.19,10.74,16.64,16.21l.05.48-18.04,18.03c-1.85,1.6-3.47,3.52-5.7,4.61-11.33,5.53-23.28-5.44-19-16.98.8-2.16,2.2-4.21,3.99-5.64-1.09-1.57-2.43-2.69-3.32-4.43-3-5.85-1.14-13.83,4.36-17.49,4.59-3.06,10.42-3.26,15.33-.25Z"/>
  </g>
</svg>