<?xml version="1.0" encoding="UTF-8"?>
<svg id="Layer_1" data-name="Layer 1" xmlns="http://www.w3.org/2000/svg" viewBox="0 0 128 128">
  <defs>
    <style>
      .cls-1 {
        fill: #2c2c2c;
      }

      .cls-2 {
        fill: #be17d6;
      }

      .cls-3 {
        fill: #fe6bc3;
      }

      .cls-4 {
        fill: #333ebc;
      }

      .cls-5 {
        fill: #f5f5f5;
      }

      .cls-6 {
        fill: #fe75a1;
      }
    </style>
  </defs>
  <path class="cls-3" d="M126.08,30.64v66.72c0,1.32-.09,2.62-.26,3.89-.2,1.41-.49,2.79-.88,4.13h0c-3.48,11.96-14.52,20.7-27.58,20.7H30.64c-3.51,0-6.88-.63-9.99-1.79-3.2-1.19-6.14-2.93-8.68-5.12-2.44-2.07-4.52-4.57-6.13-7.35-1.18-2-2.12-4.16-2.78-6.43h0c-.38-1.31-.67-2.66-.86-4.04-.01-.03-.01-.06-.01-.1-.18-1.27-.27-2.57-.27-3.89V30.64c0-1.32.09-2.62.27-3.89,0-.04,0-.07.01-.1.19-1.38.48-2.73.86-4.04.66-2.27,1.6-4.43,2.78-6.43,1.61-2.78,3.69-5.28,6.13-7.35,2.54-2.19,5.48-3.93,8.68-5.12h.01c3.11-1.16,6.47-1.79,9.98-1.79h66.72c13.06,0,24.1,8.74,27.58,20.69.39,1.34.68,2.73.88,4.14.17,1.27.26,2.57.26,3.89Z"/>
  <g>
    <path class="cls-6" d="M125.82,26.75H2.19s0-.07,0-.11c.18-1.38.48-2.73.86-4.04.66-2.27,1.59-4.43,2.77-6.43,1.61-2.78,3.7-5.28,6.13-7.35,2.54-2.18,5.48-3.93,8.68-5.11h0c3.11-1.16,6.47-1.79,9.98-1.79h66.72c13.07,0,24.1,8.74,27.58,20.69.4,1.34.69,2.73.88,4.14Z"/>
    <path class="cls-5" d="M126.08,30.64v20.94H1.92v-20.94c0-1.32.09-2.62.27-3.89h123.63c.17,1.27.26,2.57.26,3.89Z"/>
    <rect class="cls-2" x="1.92" y="51.58" width="124.16" height="24.83"/>
    <path class="cls-1" d="M126.08,76.42v20.94c0,1.32-.09,2.62-.26,3.89H2.19c-.18-1.27-.27-2.57-.27-3.89v-20.94h124.16Z"/>
    <path class="cls-4" d="M125.82,101.25c-.19,1.42-.48,2.79-.88,4.13h0c-3.47,11.96-14.51,20.7-27.58,20.7H30.64c-3.51,0-6.88-.63-9.99-1.79-3.2-1.18-6.14-2.93-8.68-5.11-2.43-2.08-4.52-4.57-6.13-7.35-1.18-2-2.11-4.16-2.77-6.43h0c-.39-1.31-.68-2.66-.86-4.04,0-.04,0-.07,0-.11h123.63Z"/>
  </g>
</svg>