<?xml version="1.0" encoding="UTF-8"?>
<svg xmlns="http://www.w3.org/2000/svg" width="128" height="128" viewBox="0 0 7 7">
  <mask id="m">
    <rect width="7" height="7" fill="#fff" rx="1.61875" />
  </mask>
  <clipPath id="clip1_887_14">
    <rect width="6" height="6" fill="#fff" transform="translate(0.5 0.33333)"/>
  </clipPath>
  <g mask="url(#m)" transform="scale(0.97)" transform-origin="center">
    <rect width="7" height="7" fill="#000000" />
    <rect width="7" height="6" fill="#545454" />
    <rect width="7" height="5" fill="#ffffff" />
    <rect width="7" height="4" fill="#fde5b7" />
    <rect width="7" height="3" fill="#fddc62" />
    <rect width="7" height="2" fill="#d46300" />
    <rect width="7" height="1" fill="#613704" />
  </g>
  <g clip-path="url(#clip1_887_14)">
    <path d="M1.97657 5.14844C1.80079 5.08985 1.27345 4.54297 1.23439 4.48438C1.19532 4.42578 1.17579 4.34766 1.21486 4.26953C1.25392 4.19141 1.29298 4.19141 1.41017 4.17188C1.52736 4.15234 1.52736 4.15234 1.7422 4.17188C1.95704 4.19141 2.32814 4.42578 2.34767 4.64063C2.3672 4.85547 2.3672 4.81641 2.34767 4.93359C2.32814 5.05078 2.15236 5.20703 1.97657 5.14844Z" fill="black"/>
    <path d="M2.25001 3.68359C2.23048 3.82031 2.11329 3.89844 1.83986 3.95703C1.68858 3.98945 1.43845 3.81871 1.27345 3.625C1.14021 3.46858 1.07606 3.28881 1.05861 3.25391C1.01954 3.17578 1.01954 3.11719 1.03907 3.01953C1.05861 2.92188 1.09767 2.86328 1.21486 2.82422C1.33204 2.78516 1.46876 2.82422 1.62501 2.90234C1.78126 2.98047 2.09376 3.21484 2.17189 3.35156C2.25001 3.48828 2.26954 3.54688 2.25001 3.68359Z" fill="black"/>
    <path d="M1.05861 1.51563C1.05861 1.35938 1.09767 1.30078 1.25392 1.30078C1.41017 1.30078 2.07423 1.57422 2.13282 1.71094C2.19142 1.84766 2.19142 2.02344 2.17189 2.12109C2.15236 2.21875 2.11329 2.47266 1.78126 2.45313C1.44923 2.43359 1.05861 1.67188 1.05861 1.51563Z" fill="black"/>
    <path d="M2.40626 0.79297C2.50392 0.773439 3.10939 0.712404 3.28517 0.910158C3.46095 1.10791 3.51954 1.16406 3.48048 1.39844C3.44142 1.63281 3.16798 1.76953 2.95314 1.76953C2.73829 1.76953 2.79689 1.61328 2.60157 1.51563C2.40626 1.41797 2.3672 1.45703 2.19142 1.39844C2.01564 1.33985 1.99611 1.24219 1.99611 1.08594C1.99611 0.929689 2.30861 0.812501 2.40626 0.79297Z" fill="black"/>
    <path d="M3.79298 1.59375C3.73439 1.45703 3.69532 1.24219 3.75392 1.16406C3.81251 1.08594 3.87111 1.08594 4.04689 1.10547C4.22267 1.125 4.43751 1.16406 4.61329 1.26172C4.78907 1.35938 5.08204 1.67188 5.06251 1.86719L5.06199 1.87244C5.0426 2.06668 5.0196 2.29705 4.59376 2.31641C4.16407 2.33594 3.85157 1.73047 3.79298 1.59375Z" fill="black"/>
    <path fill-rule="evenodd" clip-rule="evenodd" d="M5.19786 2.26509C5.46814 2.16098 5.58592 2.11562 5.76561 2.27734C5.97277 2.46379 6.11718 2.64844 5.84374 2.88281C5.62205 3.07283 5.45171 3.19866 5.31191 3.30193C5.27928 3.32604 5.24831 3.34892 5.21874 3.37109C5.1611 3.41432 5.01844 3.50538 4.8515 3.61192C4.56587 3.79423 4.2092 4.02187 4.08593 4.13281C3.96074 4.24548 3.84357 4.38222 3.719 4.52761C3.64923 4.60905 3.57713 4.69319 3.49999 4.77734C3.43249 4.85097 3.3862 4.92653 3.34355 4.99615C3.25045 5.14812 3.1747 5.27176 2.93358 5.28516C2.58202 5.30469 2.54296 4.64062 2.54296 4.54297C2.54296 4.53083 2.54266 4.51688 2.54231 4.50112C2.53991 4.39009 2.53557 4.18919 2.62108 3.89844C2.71874 3.56641 2.71874 3.50781 2.52343 3.35156C2.50875 3.33982 2.49373 3.32796 2.47854 3.31596C2.2916 3.16834 2.07714 2.99898 2.11327 2.74609C2.11977 2.70061 2.12248 2.65783 2.1251 2.61658C2.13822 2.40985 2.14889 2.24164 2.62108 1.96484C3.04877 1.71413 3.29828 1.88658 3.58825 2.087C3.6823 2.152 3.7806 2.21994 3.89061 2.27734C4.33983 2.51172 4.69139 2.45313 5.06249 2.31641C5.11169 2.29828 5.15656 2.281 5.19786 2.26509Z" fill="black"/>
  </g>
</svg>