<?xml version="1.0" encoding="UTF-8"?>
<svg id="Layer_1" data-name="Layer 1" xmlns="http://www.w3.org/2000/svg" viewBox="0 0 128 128">
  <defs>
    <style>
      .cls-1 {
        fill: #ffff01;
      }

      .cls-2 {
        fill: #fe9900;
      }

      .cls-3 {
        fill: #090;
      }

      .cls-4 {
        fill: #fe6bc3;
      }

      .cls-5 {
        fill: #35009a;
      }

      .cls-6 {
        fill: #ff6599;
      }

      .cls-7 {
        fill: #009bcb;
      }

      .cls-8 {
        fill: #fe0000;
      }

      .cls-9 {
        fill: #cd66ff;
      }

      .cls-10 {
        fill: #909;
      }

      .cls-11 {
        fill: #74d6ec;
      }
    </style>
  </defs>
  <path class="cls-4" d="M126.08,30.64v66.72c0,.38,0,.76-.03,1.13-.09,2.39-.48,4.69-1.12,6.89h0c-.71,2.46-1.75,4.77-3.05,6.91-5.04,8.27-14.14,13.79-24.53,13.79H30.64c-3.51,0-6.88-.63-9.99-1.79-3.2-1.18-6.14-2.93-8.68-5.11-2.3-1.96-4.29-4.29-5.85-6.89-.1-.16-.19-.31-.28-.47-1.18-2-2.11-4.16-2.77-6.43h0c-.39-1.31-.68-2.66-.86-4.04-.14-.94-.22-1.89-.25-2.86-.02-.37-.03-.76-.03-1.13V30.64c0-.38,0-.77.03-1.13.03-.97.12-1.92.25-2.86.18-1.38.48-2.73.86-4.04.66-2.27,1.59-4.43,2.77-6.43.09-.16.18-.31.28-.47,1.56-2.6,3.55-4.93,5.85-6.89,2.54-2.18,5.48-3.93,8.68-5.11h0c3.11-1.16,6.47-1.79,9.98-1.79h66.72c10.39,0,19.49,5.52,24.53,13.79,1.3,2.13,2.34,4.44,3.05,6.9.64,2.2,1.03,4.51,1.12,6.9.02.38.03.76.03,1.13Z"/>
  <g>
    <path class="cls-11" d="M126.08,30.64v66.72c0,.38,0,.76-.03,1.13-.09,2.39-.48,4.69-1.12,6.89h0c-.71,2.46-1.75,4.77-3.05,6.91-5.04,8.27-14.14,13.79-24.53,13.79H30.64c-3.51,0-6.88-.63-9.99-1.79-3.2-1.18-6.14-2.93-8.68-5.11-2.3-1.96-4.29-4.29-5.85-6.89-.1-.16-.19-.31-.28-.47-1.18-2-2.11-4.16-2.77-6.43h0c-.39-1.31-.68-2.66-.86-4.04-.14-.94-.22-1.89-.25-2.86-.02-.37-.03-.76-.03-1.13V30.64c0-.38,0-.77.03-1.13.03-.97.12-1.92.25-2.86.18-1.38.48-2.73.86-4.04.66-2.27,1.59-4.43,2.77-6.43.09-.16.18-.31.28-.47,1.56-2.6,3.55-4.93,5.85-6.89,2.54-2.18,5.48-3.93,8.68-5.11h0c3.11-1.16,6.47-1.79,9.98-1.79h66.72c10.39,0,19.49,5.52,24.53,13.79,1.3,2.13,2.34,4.44,3.05,6.9.64,2.2,1.03,4.51,1.12,6.9.02.38.03.76.03,1.13Z"/>
    <path class="cls-9" d="M121.89,15.71H6.12c1.56-2.6,3.55-4.93,5.85-6.89,2.54-2.18,5.48-3.93,8.68-5.11h0c3.11-1.16,6.47-1.79,9.98-1.79h66.72c10.39,0,19.49,5.52,24.53,13.79Z"/>
    <path class="cls-6" d="M126.05,29.51H1.95c.03-.97.12-1.92.25-2.86.18-1.38.48-2.73.86-4.04.66-2.27,1.59-4.43,2.77-6.43.09-.16.18-.31.28-.47h115.77c1.3,2.13,2.34,4.44,3.05,6.9.64,2.2,1.03,4.51,1.12,6.9Z"/>
    <path class="cls-8" d="M126.08,30.64v12.67H1.92v-12.67c0-.38,0-.77.03-1.13h124.1c.02.38.03.76.03,1.13Z"/>
    <rect class="cls-2" x="1.92" y="43.31" width="124.16" height="13.8"/>
    <rect class="cls-1" x="1.92" y="57.1" width="124.16" height="13.8"/>
    <rect class="cls-3" x="1.92" y="70.9" width="124.16" height="13.8"/>
    <path class="cls-10" d="M121.89,112.29c-5.04,8.27-14.14,13.79-24.53,13.79H30.64c-3.51,0-6.88-.63-9.99-1.79-3.2-1.18-6.14-2.93-8.68-5.11-2.3-1.96-4.29-4.29-5.85-6.89h115.77Z"/>
    <path class="cls-7" d="M126.08,84.69v12.67c0,.38,0,.76-.03,1.13H1.95c-.02-.37-.03-.76-.03-1.13v-12.67h124.16Z"/>
    <path class="cls-5" d="M126.05,98.49c-.09,2.39-.48,4.69-1.12,6.89h0c-.71,2.46-1.75,4.77-3.05,6.91H6.12c-.1-.16-.19-.31-.28-.47-1.18-2-2.11-4.16-2.77-6.43h0c-.39-1.31-.68-2.66-.86-4.04-.14-.94-.22-1.89-.25-2.86h124.1Z"/>
  </g>
</svg>