<?xml version="1.0" encoding="UTF-8"?>
<svg id="Layer_1" data-name="Layer 1" xmlns="http://www.w3.org/2000/svg" viewBox="0 0 128 128">
  <defs>
    <style>
      .cls-1 {
        fill: #e40000;
      }

      .cls-2 {
        fill: #e0a676;
      }

      .cls-3 {
        fill: #86311a;
      }

      .cls-4 {
        fill: #fe6bc3;
      }

      .cls-5 {
        fill: #3b2518;
      }

      .cls-6 {
        fill: #fd8c00;
      }

      .cls-7 {
        fill: #13110f;
      }

      .cls-8 {
        fill: #5d3a1c;
      }

      .cls-9 {
        fill: #018021;
      }

      .cls-10 {
        fill: #a96220;
      }

      .cls-11 {
        fill: #004dfe;
      }

      .cls-12 {
        fill: #feed00;
      }

      .cls-13 {
        fill: #fafafa;
      }

      .cls-14 {
        fill: #760188;
      }
    </style>
  </defs>
  <path class="cls-4" d="M126.08,30.64v66.72c0,2.78-.4,5.48-1.14,8.02h0c-3.47,11.96-14.51,20.7-27.58,20.7H30.64c-3.51,0-6.88-.63-9.99-1.79-3.2-1.18-6.14-2.93-8.68-5.11-2.43-2.08-4.52-4.57-6.13-7.35-1.18-2-2.11-4.16-2.77-6.43h0c-.39-1.31-.68-2.66-.86-4.04-.18-1.31-.28-2.64-.28-4V30.64c0-1.36.1-2.69.28-4,.18-1.38.48-2.73.86-4.04.66-2.27,1.59-4.43,2.77-6.43,1.61-2.78,3.7-5.28,6.13-7.35,2.54-2.18,5.48-3.93,8.68-5.11h0c3.11-1.16,6.47-1.79,9.98-1.79h66.72c13.07,0,24.1,8.74,27.58,20.69.75,2.55,1.14,5.25,1.14,8.03Z"/>
  <g>
    <g>
      <path class="cls-1" d="M124.94,22.61h-36.5c-.18-.29-.37-.62-.53-.99-1.38-3.01-2.96-7.76-4.69-10.39-1.01-1.54-1.72-.64-2.91-.28-3.63,1.07-9.08,2.18-12.34,3.8-.55.27-1.42.86-1.23,1.59.98,2.15,2.2,4.19,3.33,6.27h-3.09c-.04-.08-.08-.16-.12-.25,0,0,0-.02,0-.03-.02-.04-.03-.08-.05-.12-.02-.05-.04-.09-.07-.14,0-.02-.02-.04-.03-.06,0-.02,0-.05-.02-.07,0,0,0-.03-.02-.04,0-.03-.02-.06-.03-.09-.05-.11-.09-.21-.14-.33-.02-.04-.03-.08-.05-.12-.06-.17-.13-.35-.18-.52-.08-.19-.15-.4-.22-.6-.07-.19-.15-.4-.22-.59-.06-.16-.12-.31-.18-.47-.06-.15-.13-.3-.19-.45-.11-.26-.23-.5-.36-.74-1.16-2.1-3.82-.99-5.77-.4-3.19.95-6.69,2.87-9.33,5H3.06c.66-2.27,1.59-4.43,2.77-6.43,1.61-2.78,3.7-5.28,6.13-7.35,2.54-2.18,5.48-3.93,8.68-5.11h0c3.11-1.16,6.47-1.79,9.98-1.79h66.72c13.07,0,24.1,8.74,27.58,20.69Z"/>
      <path class="cls-6" d="M85.27,42.08c-.1.36-.09.91-.18,1.23h-1.9c.79-.7,1.81-1.47,2.07-1.23Z"/>
      <path class="cls-6" d="M126.08,30.64v12.67h-24.71c-.74-1.87-1.12-3.82-1.75-5.74-.77-2.31-1.72-5.28-2.65-7.47-1.75-4.12-3.79-4.01-7.81-3.01-1.13.27-2.23.56-3.35.86-7.36,2.01-14.63,4.37-22,6.36-.37.1-.75.2-1.07.41-1.18.78-.62,2.78-.49,3.93.15,1.22.39,2.42.62,3.63.17.85.62.84,1.18,1.03h-6.46c-.2-.33-.4-.66-.59-1-1.78-3.04-3.53-6.08-5.43-9.06-1.41-2.18-2.91-5-4.47-7.01-.31-.41-.56-.81-1.12-.84-.42-.03-2.09.47-2.57.63-2.73.99-7.51,4.21-9.12,6.66-.79,1.17-.72,1.41-.19,2.64,1.39,3.25,3.44,5.32,5.4,7.98h-2.69c-.98-1.31-1.86-2.67-2.86-3.95-.6-.78-1.58-2.21-2.7-2.26-1.43-.07-2.9,1.21-3.93,2.06-1.4,1.16-2.59,2.45-3.71,3.89-.05.06-.09.12-.14.17-.02.03-.04.06-.06.09H1.92v-12.67c0-1.36.1-2.69.28-4,.18-1.38.48-2.73.86-4.04h46.91c-.16.13-.31.26-.47.39-1.33,1.13.47,3.4,1.21,4.6,2.52,4.02,5.53,7.79,8.07,11.8.25.41.16,1.07.77.65.41-.27-.1-1.04-.14-1.46-.09-1.05-.16-2.86-.06-3.87.04-.45.11-.75.43-1.09.33-.33,1.39-.72,1.86-.88,2.64-.89,5.58-1.45,8.24-2.42.52-.17.58-.75.44-1.23-1.01-2.2-2.33-4.3-3.36-6.48h3.09c.18.35.38.7.55,1.05.45.85,2.04,4.71,2.47,5.06.48.41,1.63.24,2.22.12,3.43-.68,8.78-2.19,12.12-3.31,2.43-.81,1.8-1.57,1-2.92h36.5c.75,2.55,1.14,5.25,1.14,8.03Z"/>
      <path class="cls-12" d="M89.88,51.83c.02.1-.1.23-.17.27-.4.2-3.36.17-4.16.27-1.54.19-3.06.52-4.54.97-3.15.94-6.12,2.4-8.89,4.17-.25.16-.49.32-.73.48-2.65,1.78-5.17,3.86-7.54,6.02h-4.41c.79-.79,1.62-1.53,2.49-2.26.72-.59,1.44-1.19,2.16-1.78,1.29-1.07,2.67-1.93,3.81-3.16-1.83.02-3.71-.14-5.5.35-2.93.16-6.92.66-9.76,1.33-3.32.77-6.34,3.2-8.78,5.53h-7.03l-.88-1.06-9.68-7.7c-.84-.19-.92,1.79-.95,2.36-.15,2.34.26,3.91.71,6.12.02.11.17.16.18.18,0,.03,0,.07,0,.11H1.92v-20.69h21.51c-.91,1.15-2.09,2.3-1.37,3.9.56,1.23,4.22,4.54,5.39,5.61,2.17,1.98,10.37,9.39,12.6,10.02.76.21,1.02.17,1.72-.19.64-.33,1.28-.66,1.9-1.02,1.21-.71,2.37-1.53,3.3-2.59.34-.4.6-.63.5-1.21-.14-.85-2.41-3.19-3.06-4.05-1.3-1.74-2.46-3.56-3.69-5.34-1.14-1.64-2.42-3.19-3.63-4.77-.09-.11-.17-.23-.26-.34h2.68s0,0,0,.01c2.14,2.92,4.08,5.97,6.39,8.77,2.04,2.48,2.9,4.22,6.47,4,2.33-.14,7.03-.94,9.34-1.48.55-.13,1.95-.37,2.05-.95.12-.64-.62-1.45-.94-1.96-.65-1.04-1.3-2.08-1.96-3.12-1.1-1.75-2.21-3.5-3.27-5.28h6.46c.14.04.29.1.45.19,3.49,1.96,7.29,3.57,11.43,3.73,2.02.07,5.2-1.29,6.3-3.03.14-.16.51-.52.94-.9h1.9s0,0,0,.01c-.13.49-.68.85-.87,1.2-.98,1.83-2.17,5.37.47,6.38.73.29,5.02.69,5.19.93Z"/>
      <path class="cls-12" d="M126.08,43.31v20.69h-24.62c1.29-1.1,2.65-1.96,3.67-3.4.53-.75.96-1.55,1.03-2.48.04-.52-.45-1.39-.61-1.89-.2-.63-.4-1.26-.6-1.89-.4-1.26-.79-2.53-1.18-3.79-.67-2.18-1.19-4.46-2.12-6.55-.1-.23-.2-.46-.29-.69h24.71Z"/>
      <path class="cls-9" d="M34.9,83.14c.63.54,1.59.97,2.19,1.56H1.92v-20.69h24.3s0,.05,0,.07c.45,2.06.8,4.19,1.48,6.24l1.36,3.52c.3,3.59,3.21,7.04,5.85,9.32Z"/>
      <path class="cls-9" d="M36.82,64h7.03c-.09.08-.17.16-.26.25-.7.25-1.52,1.08-2.34,1.3-.55.15-1.29.18-1.85.13-.58-.05-1.8-1.19-2.38-1.43l-.2-.25Z"/>
      <path class="cls-9" d="M59.43,64h4.41c-.2.18-.4.36-.59.55-2.49,2.31-4.71,4.93-6.43,7.87-.35.6-.54,1.19-.81,1.76-.81,1.72-2.16,4.82-2.29,6.68-.08,1.06.02,1.52,1.05,1.83.61.19,1.31.31,1.95.36.23.02.47-.01.71,0l3.19.35c.12,0,.24,0,.35,0l1.42.36c.11.12.23.24.36.36l-.22.58h-13.25s0-.04,0-.06c-.01-.52.29-1.03.34-1.52,0-.04,0-.07.01-.11.32-3.22.82-6.27,2.34-9.16,1.62-3.09,3.87-5.75,6.13-8.39.43-.51.88-.99,1.34-1.46Z"/>
      <path class="cls-9" d="M126.08,64v20.69h-45.03s0-.07,0-.11c1.83-2.33,4.19-4.14,6.29-6.22.52-.51,1.2-1.57,1.72-2.01,2.15-1.83,4.23-3.72,6.23-5.72,1.07-1.07,2.14-2.15,3.17-3.26.93-1,1.69-2.22,2.71-3.12.1-.09.2-.18.3-.27h24.62Z"/>
      <path class="cls-11" d="M39.34,99.98c-.14,1.8,0,3.65,0,5.41H3.06c-.39-1.31-.68-2.66-.86-4.04-.18-1.31-.28-2.64-.28-4v-12.67h35.17s.08.09.12.13c.28.32.37.53.92,1.08,1.48,1.45,2.55,2.05,2.44,4.34-.14,3.07-1,6.62-1.23,9.75Z"/>
      <path class="cls-11" d="M62.53,84.69l-7.95,20.69h-1.21c1.21-5.1,2.8-10.63,3.65-15.91.13-.79.64-2.73-.4-2.88-1.7.32-7.2.56-7.35-1.89h13.25Z"/>
      <path class="cls-11" d="M126.08,84.69v12.67c0,2.78-.4,5.48-1.14,8.02h0s-41.87,0-41.87,0c-.21-1.76-.46-3.5-.63-5.24-.5-5.14-1.13-10.28-1.38-15.46h45.03Z"/>
      <path class="cls-14" d="M52.99,108.49c-.01-.14.16-2.14.18-2.27.06-.28.13-.56.2-.83h1.21l-1.23,3.2c-.15,0-.34.08-.36-.09Z"/>
      <path class="cls-14" d="M124.94,105.39c-3.47,11.95-14.51,20.69-27.58,20.69H30.64c-3.51,0-6.88-.63-9.99-1.79-3.2-1.18-6.14-2.93-8.68-5.11-2.43-2.08-4.52-4.57-6.13-7.35-1.18-2-2.11-4.16-2.77-6.43h36.27c0,.38,0,.76-.02,1.13-.04.95-.26,1.89-.4,2.84-.11.79-.42,2.83.43,3.27,1.39.71,2.78,1.56,4.25,2.09,1.46.52,2.94.97,4.45,1.31,5.71,1.31,11.79,1.69,17.63,1.24,4.49-.35,11.97-1.42,16.2-2.78,1.81-.59,1.68-1.97,1.64-3.7-.05-1.8-.23-3.61-.45-5.4h41.87Z"/>
    </g>
    <path class="cls-7" d="M83.2,43.31h1.9c.09-.33.08-.87.17-1.23-.26-.24-1.28.53-2.08,1.23ZM56.01,74.18c.27-.57.47-1.16.82-1.76,1.71-2.94,3.94-5.56,6.43-7.88.19-.18.39-.36.59-.54h-4.41c-.47.47-.91.95-1.35,1.45-2.25,2.64-4.5,5.31-6.13,8.39-1.51,2.89-2.02,5.95-2.34,9.16,0,.04,0,.08,0,.12-.05.49-.35,1.01-.34,1.52,0,.02,0,.04,0,.05.14,2.46,5.65,2.22,7.34,1.9,1.04.16.53,2.09.41,2.88-.85,5.28-2.45,10.82-3.66,15.92-.07.27-.14.55-.19.83-.03.13-.19,2.13-.18,2.27.02.16.21.08.36.09l1.22-3.19,7.95-20.7.22-.58c-.13-.12-.24-.23-.36-.36l-1.42-.35c-.12,0-.23,0-.35,0l-3.2-.35c-.23-.02-.48,0-.71,0-.64-.06-1.33-.17-1.95-.36-1.03-.31-1.13-.78-1.05-1.83.13-1.86,1.47-4.96,2.29-6.68ZM83.2,43.31h1.9c.09-.33.08-.87.17-1.23-.26-.24-1.28.53-2.08,1.23ZM56.01,74.18c.27-.57.47-1.16.82-1.76,1.71-2.94,3.94-5.56,6.43-7.88.19-.18.39-.36.59-.54h-4.41c-.47.47-.91.95-1.35,1.45-2.25,2.64-4.5,5.31-6.13,8.39-1.51,2.89-2.02,5.95-2.34,9.16,0,.04,0,.08,0,.12-.05.49-.35,1.01-.34,1.52,0,.02,0,.04,0,.05.14,2.46,5.65,2.22,7.34,1.9,1.04.16.53,2.09.41,2.88-.85,5.28-2.45,10.82-3.66,15.92-.07.27-.14.55-.19.83-.03.13-.19,2.13-.18,2.27.02.16.21.08.36.09l1.22-3.19,7.95-20.7.22-.58c-.13-.12-.24-.23-.36-.36l-1.42-.35c-.12,0-.23,0-.35,0l-3.2-.35c-.23-.02-.48,0-.71,0-.64-.06-1.33-.17-1.95-.36-1.03-.31-1.13-.78-1.05-1.83.13-1.86,1.47-4.96,2.29-6.68ZM83.2,43.31h1.9c.09-.33.08-.87.17-1.23-.26-.24-1.28.53-2.08,1.23ZM56.01,74.18c.27-.57.47-1.16.82-1.76,1.71-2.94,3.94-5.56,6.43-7.88.19-.18.39-.36.59-.54h-4.41c-.47.47-.91.95-1.35,1.45-2.25,2.64-4.5,5.31-6.13,8.39-1.51,2.89-2.02,5.95-2.34,9.16,0,.04,0,.08,0,.12-.05.49-.35,1.01-.34,1.52,0,.02,0,.04,0,.05.14,2.46,5.65,2.22,7.34,1.9,1.04.16.53,2.09.41,2.88-.85,5.28-2.45,10.82-3.66,15.92-.07.27-.14.55-.19.83-.03.13-.19,2.13-.18,2.27.02.16.21.08.36.09l1.22-3.19,7.95-20.7.22-.58c-.13-.12-.24-.23-.36-.36l-1.42-.35c-.12,0-.23,0-.35,0l-3.2-.35c-.23-.02-.48,0-.71,0-.64-.06-1.33-.17-1.95-.36-1.03-.31-1.13-.78-1.05-1.83.13-1.86,1.47-4.96,2.29-6.68ZM83.2,43.31h1.9c.09-.33.08-.87.17-1.23-.26-.24-1.28.53-2.08,1.23ZM53.37,105.39c-.07.27-.14.55-.19.83-.03.13-.19,2.13-.18,2.27.02.16.21.08.36.09l1.22-3.19h-1.2ZM83.2,43.31h1.9c.09-.33.08-.87.17-1.23-.26-.24-1.28.53-2.08,1.23ZM53.37,105.39c-.07.27-.14.55-.19.83-.03.13-.19,2.13-.18,2.27.02.16.21.08.36.09l1.22-3.19h-1.2ZM83.2,43.31h1.9c.09-.33.08-.87.17-1.23-.26-.24-1.28.53-2.08,1.23ZM53.37,105.39c-.07.27-.14.55-.19.83-.03.13-.19,2.13-.18,2.27.02.16.21.08.36.09l1.22-3.19h-1.2ZM83.2,43.31h1.9c.09-.33.08-.87.17-1.23-.26-.24-1.28.53-2.08,1.23ZM53.37,105.39c-.07.27-.14.55-.19.83-.03.13-.19,2.13-.18,2.27.02.16.21.08.36.09l1.22-3.19h-1.2ZM83.2,43.31h1.9c.09-.33.08-.87.17-1.23-.26-.24-1.28.53-2.08,1.23ZM53.37,105.39c-.07.27-.14.55-.19.83-.03.13-.19,2.13-.18,2.27.02.16.21.08.36.09l1.22-3.19h-1.2ZM53.37,105.39c-.07.27-.14.55-.19.83-.03.13-.19,2.13-.18,2.27.02.16.21.08.36.09l1.22-3.19h-1.2ZM53.37,105.39c-.07.27-.14.55-.19.83-.03.13-.19,2.13-.18,2.27.02.16.21.08.36.09l1.22-3.19h-1.2ZM53.37,105.39c-.07.27-.14.55-.19.83-.03.13-.19,2.13-.18,2.27.02.16.21.08.36.09l1.22-3.19h-1.2ZM53.37,105.39c-.07.27-.14.55-.19.83-.03.13-.19,2.13-.18,2.27.02.16.21.08.36.09l1.22-3.19h-1.2ZM123.13,56.06c-.02-.2-.05-.41-.08-.61-.03-.17-.05-.35-.08-.53-.12-.74-.24-1.47-.39-2.2,0-.06-.02-.12-.03-.17-.61-3.17-1.48-6.26-2.58-9.22-.06-.15-.12-.3-.16-.45-.02-.05-.05-.11-.07-.16-2.88-7.56-7.27-14.37-12.78-20.09-.71-.73-1.43-1.44-2.16-2.13-.36-.33-.72-.66-1.08-.98-.02-.02-.04-.05-.07-.06,0,0-.02-.02-.02-.03-.44-.38-.86-.76-1.3-1.12-.35-.29-.7-.58-1.06-.86,0-.02-.02-.03-.04-.04-.73-.58-1.46-1.14-2.21-1.69-.26-.18-.51-.37-.78-.55-.75-.52-1.49-1.03-2.26-1.51,0,0,0,0,0,0-1.46-.92-2.95-1.78-4.48-2.58h0c-.85-.46-1.72-.88-2.6-1.28-.11-.05-.21-.1-.32-.14-.21-.11-.44-.2-.66-.3-.04-.02-.09-.04-.14-.06-.18-.09-.39-.17-.57-.25-6.02-2.54-12.54-4.12-19.38-4.56-.43-.03-.85-.05-1.29-.07-.22,0-.46-.02-.69-.03h-.32c-.1,0-.2,0-.31,0-.41,0-.81-.02-1.22-.02-.22,0-.44,0-.66,0h-.15c-.24,0-.48,0-.73.02-.28,0-.57,0-.85.02-.42.02-.83.04-1.25.07-.42.02-.82.05-1.24.09-.41.03-.81.07-1.21.11-.31.03-.62.07-.92.11-.2.02-.39.04-.57.07-.25.03-.5.07-.75.1-.25.04-.49.07-.75.11-.41.07-.81.14-1.22.2-.06,0-.12.02-.16.03-.14.03-.28.05-.42.08-.26.04-.51.1-.77.15-12.18,2.41-23.04,8.54-31.31,17.13-.41.42-.81.84-1.19,1.27-.08.09-.17.18-.23.27-.11.11-.21.23-.32.35-3.76,4.26-6.94,9.07-9.37,14.29,0,.02-.02.03-.02.04-.68,1.46-1.31,2.96-1.87,4.48-.32.87-.63,1.78-.91,2.67-1.8,5.68-2.77,11.74-2.77,18.02,0,3.22.25,6.37.75,9.45.49,3.08,1.21,6.09,2.15,8.99.02.05.04.09.05.14.14.42.28.83.43,1.25.03.08.06.16.08.24.08.21.16.42.23.62,2.88,7.8,7.35,14.82,13.01,20.7,10.85,11.26,26.09,18.27,42.97,18.27,8.24,0,16.08-1.68,23.22-4.69,0,0,.02,0,.02,0,1.55-.66,3.07-1.38,4.56-2.16.04-.02.09-.05.13-.07,3.76-1.99,7.27-4.36,10.5-7.09,1.58-1.34,3.1-2.75,4.55-4.25.24-.25.48-.51.72-.77,4.34-4.66,7.94-10.01,10.61-15.88.61-1.33,1.16-2.68,1.68-4.05,1.53-4.16,2.63-8.55,3.2-13.09,0-.05,0-.11.02-.16.31-2.44.47-4.93.47-7.45,0-2.7-.18-5.34-.53-7.94ZM67.97,14.75c3.26-1.62,8.71-2.74,12.34-3.8,1.19-.36,1.9-1.26,2.91.28,1.73,2.63,3.31,7.38,4.69,10.39.16.37.35.7.53.99.81,1.35,1.44,2.11-1,2.92-3.35,1.12-8.69,2.63-12.12,3.31-.59.13-1.74.29-2.22-.12-.44-.35-2.03-4.21-2.47-5.06-.17-.35-.37-.7-.55-1.05-1.13-2.08-2.35-4.11-3.33-6.27-.18-.73.68-1.32,1.23-1.59ZM59.31,17.61c1.95-.59,4.61-1.7,5.77.4.13.23.25.48.36.74.07.15.14.3.19.45.22.53.43,1.11.63,1.66.04.14.09.26.15.39.07.2.15.4.22.58,0,.03.02.06.03.09,0,0,0,.03.02.04,0,.02.02.05.02.07,0,.02.02.04.03.06.03.05.05.09.07.14.02.04.03.08.05.12,0,0,0,.02,0,.03.03.07.05.14.08.19,0,.02.03.04.04.06,1.03,2.18,2.35,4.28,3.36,6.48.15.48.09,1.06-.44,1.23-2.66.96-5.6,1.52-8.24,2.42-.48.16-1.53.55-1.86.88-.32.34-.39.64-.43,1.09-.1,1.01-.03,2.82.06,3.87.04.43.54,1.19.14,1.46-.6.42-.51-.24-.77-.65-2.54-4.01-5.55-7.78-8.07-11.8-.75-1.19-2.54-3.46-1.21-4.6.16-.13.31-.26.47-.39,2.64-2.12,6.14-4.04,9.33-5ZM60.87,48.59c.66,1.04,1.31,2.08,1.96,3.11.32.51,1.06,1.33.94,1.97-.11.58-1.5.81-2.05.95-2.31.53-7,1.33-9.34,1.47-3.57.22-4.43-1.52-6.47-4.01-2.32-2.79-4.26-5.85-6.39-8.77,0,0,0,0,0,0-1.96-2.67-4.02-4.73-5.4-7.98-.52-1.23-.59-1.46.19-2.64,1.61-2.45,6.39-5.67,9.12-6.66.48-.16,2.15-.66,2.57-.63.56.03.81.44,1.12.84,1.56,2.02,3.07,4.83,4.47,7.01,1.9,2.98,3.65,6.02,5.43,9.06.19.34.39.67.59,1,1.06,1.78,2.16,3.52,3.26,5.28ZM23.49,43.22c.05-.06.09-.12.14-.17,1.12-1.44,2.31-2.73,3.71-3.89,1.03-.84,2.5-2.12,3.93-2.06,1.12.05,2.1,1.48,2.7,2.26,1,1.28,1.88,2.64,2.86,3.95.09.11.17.22.26.34,1.21,1.58,2.49,3.13,3.63,4.77,1.23,1.78,2.4,3.61,3.7,5.34.64.86,2.92,3.2,3.06,4.05.1.57-.16.81-.49,1.2-.93,1.06-2.09,1.88-3.3,2.59-.63.37-1.26.7-1.9,1.03-.7.36-.96.4-1.72.18-2.23-.63-10.43-8.04-12.6-10.02-1.16-1.07-4.83-4.37-5.38-5.61-.73-1.59.46-2.74,1.37-3.89.02-.03.04-.06.06-.09ZM82.43,100.15c.17,1.74.42,3.48.63,5.24.21,1.79.4,3.6.45,5.4.04,1.73.17,3.1-1.64,3.7-4.23,1.37-11.71,2.43-16.2,2.78-5.84.45-11.91.07-17.63-1.24-1.51-.34-2.99-.79-4.45-1.31-1.46-.52-2.86-1.38-4.25-2.09-.84-.44-.53-2.48-.43-3.27.14-.95.36-1.89.4-2.84,0-.38.02-.76.02-1.13,0-1.77-.13-3.61,0-5.41.23-3.13,1.1-6.67,1.23-9.75.11-2.29-.96-2.89-2.44-4.34-.55-.54-.64-.76-.92-1.08-.04-.04-.08-.08-.12-.13-.6-.59-1.56-1.01-2.19-1.55-2.64-2.27-5.55-5.72-5.85-9.32l-1.36-3.51c-.67-2.05-1.03-4.17-1.47-6.24,0-.02,0-.05,0-.07v-.11s-.15-.07-.18-.17c-.46-2.22-.86-3.78-.72-6.13.04-.56.12-2.54.96-2.36l9.67,7.71.87,1.06.21.25c.57.23,1.79,1.38,2.38,1.43.56.05,1.29,0,1.84-.14.82-.21,1.64-1.05,2.34-1.29.09-.09.17-.16.26-.25,2.44-2.33,5.46-4.75,8.78-5.53,2.84-.66,6.83-1.15,9.76-1.32,1.79-.48,3.67-.33,5.5-.35-1.13,1.22-2.52,2.09-3.81,3.15-.72.59-1.44,1.19-2.15,1.78-.88.73-1.71,1.46-2.49,2.26-.47.47-.91.95-1.35,1.45-2.25,2.64-4.5,5.31-6.13,8.39-1.51,2.89-2.02,5.95-2.34,9.16,0,.04,0,.08,0,.12-.05.49-.35,1.01-.34,1.52,0,.02,0,.04,0,.05.14,2.46,5.65,2.22,7.34,1.9,1.04.16.53,2.09.41,2.88-.85,5.28-2.45,10.82-3.66,15.92-.07.27-.14.55-.19.83-.03.13-.19,2.13-.18,2.27.02.16.21.08.36.09l1.22-3.19,7.95-20.7.22-.58c-.13-.12-.24-.23-.36-.36l-1.42-.35c-.12,0-.23,0-.35,0l-3.2-.35c-.23-.02-.48,0-.71,0-.64-.06-1.33-.17-1.95-.36-1.03-.31-1.13-.78-1.05-1.83.13-1.86,1.47-4.96,2.29-6.68.27-.57.47-1.16.82-1.76,1.71-2.94,3.94-5.56,6.43-7.88.19-.18.39-.36.59-.54,2.36-2.16,4.88-4.24,7.54-6.01.24-.16.49-.33.73-.48,2.77-1.77,5.74-3.22,8.9-4.17,1.48-.44,3.01-.78,4.54-.96.81-.1,3.76-.07,4.16-.27.08-.03.19-.16.17-.26-.17-.24-4.46-.65-5.19-.93-2.65-1.01-1.45-4.55-.48-6.38.19-.35.75-.72.87-1.2h0c.09-.34.08-.88.17-1.24-.26-.24-1.28.53-2.08,1.23-.44.38-.8.74-.94.89-1.11,1.74-4.28,3.1-6.31,3.03-4.14-.16-7.94-1.78-11.44-3.73-.16-.09-.3-.15-.45-.18-.56-.18-1.01-.17-1.18-1.03-.23-1.2-.48-2.41-.62-3.63-.13-1.14-.69-3.15.49-3.93.32-.2.7-.31,1.07-.41,7.37-1.99,14.64-4.36,22-6.36,1.12-.3,2.22-.59,3.35-.86,4.02-1,6.06-1.12,7.81,3.01.93,2.19,1.88,5.16,2.65,7.47.63,1.92,1.01,3.87,1.75,5.74.09.23.18.46.28.69.93,2.09,1.45,4.37,2.11,6.55.4,1.27.79,2.53,1.18,3.79.19.63.4,1.26.6,1.89.16.5.64,1.38.61,1.89-.07.94-.5,1.74-1.04,2.48-1.02,1.44-2.38,2.29-3.67,3.4-.11.09-.2.17-.31.27-1.01.9-1.77,2.11-2.71,3.11-1.03,1.12-2.09,2.18-3.16,3.26-1.99,2-4.07,3.89-6.23,5.72-.51.44-1.2,1.49-1.72,2.01-2.1,2.07-4.46,3.88-6.3,6.22,0,.03,0,.07,0,.1.24,5.18.87,10.32,1.38,15.46ZM53.37,105.39c-.07.27-.14.55-.19.83-.03.13-.19,2.13-.18,2.27.02.16.21.08.36.09l1.22-3.19h-1.2ZM53.37,105.39c-.07.27-.14.55-.19.83-.03.13-.19,2.13-.18,2.27.02.16.21.08.36.09l1.22-3.19h-1.2ZM53.37,105.39c-.07.27-.14.55-.19.83-.03.13-.19,2.13-.18,2.27.02.16.21.08.36.09l1.22-3.19h-1.2ZM53.37,105.39c-.07.27-.14.55-.19.83-.03.13-.19,2.13-.18,2.27.02.16.21.08.36.09l1.22-3.19h-1.2ZM53.37,105.39c-.07.27-.14.55-.19.83-.03.13-.19,2.13-.18,2.27.02.16.21.08.36.09l1.22-3.19h-1.2ZM83.2,43.31h1.9c.09-.33.08-.87.17-1.23-.26-.24-1.28.53-2.08,1.23ZM53.37,105.39c-.07.27-.14.55-.19.83-.03.13-.19,2.13-.18,2.27.02.16.21.08.36.09l1.22-3.19h-1.2ZM83.2,43.31h1.9c.09-.33.08-.87.17-1.23-.26-.24-1.28.53-2.08,1.23ZM53.37,105.39c-.07.27-.14.55-.19.83-.03.13-.19,2.13-.18,2.27.02.16.21.08.36.09l1.22-3.19h-1.2ZM83.2,43.31h1.9c.09-.33.08-.87.17-1.23-.26-.24-1.28.53-2.08,1.23ZM53.37,105.39c-.07.27-.14.55-.19.83-.03.13-.19,2.13-.18,2.27.02.16.21.08.36.09l1.22-3.19h-1.2ZM83.2,43.31h1.9c.09-.33.08-.87.17-1.23-.26-.24-1.28.53-2.08,1.23ZM53.37,105.39c-.07.27-.14.55-.19.83-.03.13-.19,2.13-.18,2.27.02.16.21.08.36.09l1.22-3.19h-1.2ZM83.2,43.31h1.9c.09-.33.08-.87.17-1.23-.26-.24-1.28.53-2.08,1.23ZM56.01,74.18c.27-.57.47-1.16.82-1.76,1.71-2.94,3.94-5.56,6.43-7.88.19-.18.39-.36.59-.54h-4.41c-.47.47-.91.95-1.35,1.45-2.25,2.64-4.5,5.31-6.13,8.39-1.51,2.89-2.02,5.95-2.34,9.16,0,.04,0,.08,0,.12-.05.49-.35,1.01-.34,1.52,0,.02,0,.04,0,.05.14,2.46,5.65,2.22,7.34,1.9,1.04.16.53,2.09.41,2.88-.85,5.28-2.45,10.82-3.66,15.92-.07.27-.14.55-.19.83-.03.13-.19,2.13-.18,2.27.02.16.21.08.36.09l1.22-3.19,7.95-20.7.22-.58c-.13-.12-.24-.23-.36-.36l-1.42-.35c-.12,0-.23,0-.35,0l-3.2-.35c-.23-.02-.48,0-.71,0-.64-.06-1.33-.17-1.95-.36-1.03-.31-1.13-.78-1.05-1.83.13-1.86,1.47-4.96,2.29-6.68ZM83.2,43.31h1.9c.09-.33.08-.87.17-1.23-.26-.24-1.28.53-2.08,1.23ZM56.01,74.18c.27-.57.47-1.16.82-1.76,1.71-2.94,3.94-5.56,6.43-7.88.19-.18.39-.36.59-.54h-4.41c-.47.47-.91.95-1.35,1.45-2.25,2.64-4.5,5.31-6.13,8.39-1.51,2.89-2.02,5.95-2.34,9.16,0,.04,0,.08,0,.12-.05.49-.35,1.01-.34,1.52,0,.02,0,.04,0,.05.14,2.46,5.65,2.22,7.34,1.9,1.04.16.53,2.09.41,2.88-.85,5.28-2.45,10.82-3.66,15.92-.07.27-.14.55-.19.83-.03.13-.19,2.13-.18,2.27.02.16.21.08.36.09l1.22-3.19,7.95-20.7.22-.58c-.13-.12-.24-.23-.36-.36l-1.42-.35c-.12,0-.23,0-.35,0l-3.2-.35c-.23-.02-.48,0-.71,0-.64-.06-1.33-.17-1.95-.36-1.03-.31-1.13-.78-1.05-1.83.13-1.86,1.47-4.96,2.29-6.68ZM83.2,43.31h1.9c.09-.33.08-.87.17-1.23-.26-.24-1.28.53-2.08,1.23Z"/>
    <path class="cls-13" d="M66.96,22.61h-16.99c2.64-2.13,6.14-4.04,9.33-5,1.95-.59,4.61-1.7,5.78.4.74,1.31,1.2,3.16,1.85,4.53,0,.02.02.04.03.07Z"/>
    <path class="cls-13" d="M88.43,22.61h-18.37c-1.13-2.08-2.35-4.11-3.33-6.27-.18-.73.68-1.32,1.23-1.59,3.26-1.62,8.71-2.73,12.34-3.81,1.2-.35,1.9-1.26,2.91.29,1.73,2.63,3.31,7.38,4.69,10.39.16.36.35.69.53.99Z"/>
    <path class="cls-2" d="M87.44,25.53c-3.35,1.12-8.69,2.63-12.12,3.31-.6.12-1.74.29-2.23-.11-.43-.35-2.02-4.21-2.47-5.07-.18-.35-.37-.7-.55-1.04h18.37c.81,1.35,1.44,2.11-1,2.91Z"/>
    <path class="cls-2" d="M85.09,43.31c.09-.32.08-.87.18-1.23-.26-.25-1.28.53-2.07,1.23h-19.13c-.56-.18-1.01-.17-1.18-1.02-.24-1.2-.48-2.41-.62-3.63-.13-1.14-.7-3.16.49-3.93.32-.21.7-.31,1.07-.41,7.37-1.99,14.63-4.36,22-6.36,1.11-.3,2.22-.59,3.34-.87,4.02-1,6.07-1.12,7.81,3.01.93,2.19,1.88,5.16,2.64,7.47.63,1.92,1.02,3.87,1.75,5.74h-16.28Z"/>
    <path class="cls-2" d="M69.89,30.32c-2.65.95-5.59,1.52-8.23,2.41-.48.16-1.54.56-1.86.89-.32.34-.39.64-.43,1.08-.09,1.01-.03,2.82.06,3.87.04.43.54,1.2.14,1.47-.61.42-.52-.25-.77-.65-2.54-4.01-5.55-7.78-8.07-11.8-.74-1.19-2.54-3.46-1.21-4.6.15-.13.3-.26.46-.38h16.99c1.04,2.18,2.35,4.27,3.36,6.48.15.48.09,1.06-.44,1.23Z"/>
    <path class="cls-2" d="M57.61,43.31h-18.1c-1.96-2.66-4.01-4.73-5.4-7.97-.53-1.24-.59-1.47.19-2.64,1.61-2.45,6.4-5.67,9.12-6.66.48-.17,2.15-.67,2.57-.64.56.03.81.44,1.12.84,1.56,2.02,3.07,4.83,4.47,7.02,1.9,2.97,3.65,6.02,5.43,9.06.2.33.39.66.59.99Z"/>
    <path class="cls-2" d="M36.82,43.31h-13.39s.04-.06.07-.08c.04-.06.09-.11.13-.17,1.12-1.43,2.31-2.73,3.71-3.89,1.02-.84,2.5-2.13,3.93-2.06,1.11.05,2.09,1.49,2.69,2.27,1,1.28,1.88,2.64,2.86,3.94Z"/>
    <path class="cls-10" d="M26.22,64s0-.07,0-.11c0-.01-.16-.07-.18-.18-.46-2.21-.87-3.78-.71-6.12.03-.57.11-2.55.95-2.36l9.68,7.7.88,1.06h-10.61Z"/>
    <path class="cls-10" d="M46.96,59.02c-.93,1.06-2.09,1.88-3.3,2.59-.62.36-1.26.7-1.9,1.02-.7.36-.96.4-1.72.19-2.22-.63-10.43-8.04-12.6-10.02-1.17-1.06-4.83-4.38-5.39-5.61-.72-1.59.46-2.74,1.37-3.9h13.39c.09.11.17.23.26.34,1.21,1.58,2.5,3.13,3.63,4.77,1.23,1.78,2.4,3.61,3.69,5.34.64.86,2.91,3.2,3.06,4.05.09.58-.16.81-.5,1.21Z"/>
    <path class="cls-10" d="M63.77,53.67c-.11.58-1.5.82-2.05.95-2.31.54-7.01,1.33-9.34,1.48-3.57.22-4.43-1.52-6.47-4-2.31-2.8-4.25-5.85-6.39-8.77,0,0,0,0,0-.01h18.1c1.06,1.78,2.16,3.53,3.27,5.28.65,1.04,1.31,2.08,1.96,3.12.32.51,1.06,1.32.94,1.96Z"/>
    <path class="cls-10" d="M67.89,56.8c-1.14,1.23-2.52,2.09-3.81,3.16-.72.6-1.44,1.19-2.16,1.78-.88.73-1.7,1.47-2.49,2.26h-15.57c2.44-2.33,5.46-4.75,8.78-5.53,2.84-.66,6.83-1.16,9.76-1.33,1.79-.49,3.67-.33,5.5-.35Z"/>
    <path class="cls-10" d="M83.2,43.31c-.43.38-.8.74-.94.9-1.11,1.74-4.28,3.1-6.3,3.03-4.14-.16-7.94-1.78-11.43-3.73-.16-.09-.31-.15-.45-.19h19.13Z"/>
    <path class="cls-10" d="M106.16,58.12c-.07.94-.5,1.74-1.03,2.48-1.02,1.43-2.38,2.29-3.67,3.4h-37.62c2.36-2.16,4.89-4.24,7.54-6.02.24-.16.49-.32.73-.48,2.77-1.77,5.74-3.23,8.89-4.17,1.48-.44,3.01-.78,4.54-.97.8-.1,3.77-.07,4.16-.27.07-.03.19-.17.17-.27-.18-.24-4.46-.64-5.19-.93-2.64-1.01-1.45-4.55-.47-6.38.19-.35.74-.71.87-1.2,0,0,0,0,0-.01h16.28c.09.23.18.46.29.69.93,2.09,1.44,4.37,2.12,6.55.39,1.27.78,2.53,1.18,3.79.2.63.4,1.26.6,1.89.16.5.65,1.37.61,1.89Z"/>
    <path class="cls-3" d="M101.46,64c-.1.09-.2.18-.3.27-1.01.91-1.78,2.12-2.71,3.12-1.03,1.11-2.1,2.18-3.17,3.26-1.99,2-4.08,3.89-6.23,5.72-.52.44-1.2,1.49-1.72,2.01-2.1,2.07-4.46,3.88-6.29,6.22,0,.03,0,.07,0,.11h-18.53l.22-.58c-.12-.11-.24-.23-.36-.36l-1.42-.36c-.12,0-.24,0-.35,0l-3.19-.35c-.24-.01-.47.02-.71,0-.64-.05-1.33-.17-1.95-.36-1.03-.31-1.13-.77-1.05-1.83.13-1.86,1.48-4.96,2.29-6.68.27-.57.46-1.16.81-1.76,1.71-2.94,3.94-5.56,6.43-7.87.2-.18.39-.37.59-.55h37.62Z"/>
    <path class="cls-3" d="M59.43,64c-.46.47-.91.95-1.34,1.46-2.25,2.64-4.5,5.3-6.13,8.39-1.52,2.89-2.02,5.94-2.34,9.16,0,.04,0,.07-.01.11-.05.5-.35,1.01-.34,1.52,0,.02,0,.04,0,.06h-12.18c-.6-.59-1.56-1.02-2.19-1.56-2.64-2.27-5.55-5.72-5.85-9.32l-1.36-3.52c-.67-2.05-1.02-4.17-1.48-6.24,0-.02,0-.05,0-.07h10.61l.2.25c.58.24,1.8,1.38,2.38,1.43.56.05,1.3.02,1.85-.13.82-.22,1.64-1.05,2.34-1.3.09-.08.17-.16.26-.25h15.57Z"/>
    <path class="cls-8" d="M57.02,89.47c-.85,5.28-2.45,10.82-3.65,15.91h-14.04c0-1.76-.13-3.6,0-5.4.24-3.14,1.1-6.68,1.24-9.75.11-2.29-.96-2.89-2.44-4.34-.56-.55-.65-.76-.92-1.07-.04-.04-.07-.08-.12-.12h12.18c.14,2.46,5.65,2.21,7.35,1.89,1.04.16.53,2.09.4,2.88Z"/>
    <path class="cls-8" d="M83.06,105.39h-28.48l7.95-20.69h18.53c.25,5.17.87,10.31,1.38,15.46.17,1.73.42,3.48.62,5.23Z"/>
    <path class="cls-5" d="M81.86,114.49c-4.22,1.37-11.71,2.44-16.19,2.78-5.84.45-11.91.07-17.62-1.24-1.52-.34-2.99-.79-4.45-1.32-1.47-.52-2.86-1.38-4.25-2.09-.84-.43-.54-2.48-.43-3.27.14-.95.35-1.89.39-2.84.02-.37.02-.75.02-1.14h14.04c-.07.28-.13.56-.2.83-.03.13-.2,2.14-.18,2.27.02.17.21.08.36.09l1.23-3.2h28.48c.22,1.8.4,3.61.45,5.4.04,1.73.18,3.11-1.64,3.7Z"/>
  </g>
</svg>