<?xml version="1.0" encoding="UTF-8"?>
<svg id="Layer_1" data-name="Layer 1" xmlns="http://www.w3.org/2000/svg" viewBox="0 0 128 128">
  <defs>
    <style>
      .cls-1 {
        fill: #e40000;
      }

      .cls-2 {
        fill: #fe6bc3;
      }

      .cls-3 {
        fill: #fd8c00;
      }

      .cls-4 {
        fill: #f9f9f9;
      }

      .cls-5 {
        fill: #030303;
      }

      .cls-6 {
        fill: #018021;
      }

      .cls-7 {
        fill: #004dfe;
      }

      .cls-8 {
        fill: #feed00;
      }

      .cls-9 {
        fill: #760188;
      }
    </style>
  </defs>
  <path class="cls-2" d="M126.08,30.64v66.72c0,2.78-.4,5.48-1.14,8.02h0c-3.47,11.96-14.51,20.7-27.58,20.7H30.64c-3.51,0-6.88-.63-9.99-1.79-3.2-1.18-6.14-2.93-8.68-5.11-2.43-2.08-4.52-4.57-6.13-7.35-1.18-2-2.11-4.16-2.77-6.43h0c-.39-1.31-.68-2.66-.86-4.04-.18-1.31-.28-2.64-.28-4V30.64c0-1.36.1-2.69.28-4,.18-1.38.48-2.73.86-4.04.66-2.27,1.59-4.43,2.77-6.43,1.61-2.78,3.7-5.28,6.13-7.35,2.54-2.18,5.48-3.93,8.68-5.11h0c3.11-1.16,6.47-1.79,9.98-1.79h66.72c13.07,0,24.1,8.74,27.58,20.69.75,2.55,1.14,5.25,1.14,8.03Z"/>
  <g>
    <g>
      <path class="cls-1" d="M124.94,22.61H3.06c.66-2.27,1.59-4.43,2.77-6.43,1.61-2.78,3.7-5.28,6.13-7.35,2.54-2.18,5.48-3.93,8.68-5.11h0c3.11-1.16,6.47-1.79,9.98-1.79h66.72c13.07,0,24.1,8.74,27.58,20.69Z"/>
      <path class="cls-3" d="M126.08,30.64v12.67H1.92v-12.67c0-1.36.1-2.69.28-4,.18-1.38.48-2.73.86-4.04h121.87c.75,2.55,1.14,5.25,1.14,8.03Z"/>
      <rect class="cls-8" x="1.92" y="43.31" width="124.16" height="20.69"/>
      <rect class="cls-6" x="1.92" y="64" width="124.16" height="20.69"/>
      <path class="cls-7" d="M126.08,84.69v12.67c0,2.78-.4,5.48-1.14,8.02h0s-121.87,0-121.87,0h0c-.39-1.31-.68-2.66-.86-4.04-.18-1.31-.28-2.64-.28-4v-12.67h124.16Z"/>
      <path class="cls-9" d="M124.94,105.39c-3.47,11.95-14.51,20.69-27.58,20.69H30.64c-3.51,0-6.88-.63-9.99-1.79-3.2-1.18-6.14-2.93-8.68-5.11-2.43-2.08-4.52-4.57-6.13-7.35-1.18-2-2.11-4.16-2.77-6.43h121.87Z"/>
    </g>
    <g>
      <path class="cls-5" d="M79.17,70c-.15-.5-.29-1.01-.45-1.51-.15-.5-.3-1-.47-1.5-.16-.5-.32-1-.49-1.49-.16-.5-.34-1-.51-1.49h-.87c.04.1.08.18.1.27.19.52.38,1.05.55,1.58.4,1.16.77,2.32,1.12,3.46.12.39.23.78.35,1.15.38,1.28.73,2.54,1.04,3.78.13.5.2,2.41.68,2.51.19.04.37-.13.42-.29.15-.49-1.19-5.56-1.45-6.47ZM79.17,70c-.15-.5-.29-1.01-.45-1.51-.15-.5-.3-1-.47-1.5-.16-.5-.32-1-.49-1.49-.16-.5-.34-1-.51-1.49h-.87c.04.1.08.18.1.27.19.52.38,1.05.55,1.58.4,1.16.77,2.32,1.12,3.46.12.39.23.78.35,1.15.38,1.28.73,2.54,1.04,3.78.13.5.2,2.41.68,2.51.19.04.37-.13.42-.29.15-.49-1.19-5.56-1.45-6.47ZM79.17,70c-.15-.5-.29-1.01-.45-1.51-.15-.5-.3-1-.47-1.5-.16-.5-.32-1-.49-1.49-.16-.5-.34-1-.51-1.49h-.87c.04.1.08.18.1.27.19.52.38,1.05.55,1.58.4,1.16.77,2.32,1.12,3.46.12.39.23.78.35,1.15.38,1.28.73,2.54,1.04,3.78.13.5.2,2.41.68,2.51.19.04.37-.13.42-.29.15-.49-1.19-5.56-1.45-6.47ZM91.46,90.67c-.07-1.42-.23-4.47-.48-5.98-.02-.12-.04-.21-.06-.31-.11-.55-.22-1.1-.34-1.65-.18-.93-.37-1.87-.56-2.8-.24-1.22-.5-2.44-.8-3.65-.21-.92-.4-1.87-.71-2.75-.34-.94-.66-1.88-.97-2.82-.23-.68-.46-1.37-.69-2.05-.53-1.57-1.11-3.12-1.72-4.66-.81-2.07-1.7-4.09-2.62-6.12-1.62-3.53-3.4-6.98-5.47-10.26-.43-.68-.86-1.35-1.32-2-.39-.55-.63-1.31-1.32-1.57-.12-.05-.24-.08-.32-.17-.15-.18-.11-.38.02-.56.17-.27.52-.52.65-.72.3-.46.45-1,.64-1.48.6-1.55,1.45-3,1.66-4.69.17-1.44.17-2.9-.03-4.34-.23-1.69-.74-3.33-1.48-4.85-.43-.86-.95-1.67-1.52-2.43-.56-.67-.95-1.46-1.62-2.04-.06-.05-.13-.11-.18-.16-.69-.52-1.54-.92-2.29-1.32-.75-.4-1.5-.84-2.34-1.03-2.85-.62-6.27-.65-9.03.78-.58.3-1.48,1-2.23,1.57-.24.17-.47.35-.66.49-4.71,3.39-5.67,11.35-3.86,16.52.44,1.23,1.46,2.49,1.74,3.68t.02.02s.16.14.15.24c0,.3-1.85,2.45-2.19,2.94-3.62,5.3-6.37,11.43-8.78,17.34-.02.06-.05.11-.07.16-1.13,2.82-2.1,5.71-2.92,8.64-.52,1.83-.99,3.7-1.41,5.56-.46,2.1-.81,4.18-1.05,6.31,0,.06,0,.12-.02.17-.26,2.21-.65,4.45-.75,6.68-.18,4.5.42,9.07,2.13,13.2.08.18.2.48.35.81.39.83.92,1.95,1.23,2.28.92,1.01,2.77.16,3.75-.3.71-.34,1.37-.66,1.98-1.16.15-.12.28-.24.43-.37.16-.15.3-.28.46-.45,1.11-1.06,2.14-2.23,3.03-3.5.99-1.44,1.82-2.99,2.63-4.54.43-.82.84-1.65,1.25-2.47,1.63-3.32,3.02-6.71,4.27-10.19.04-.11.08-.2.12-.31,1.93-5.36,3.51-11.03,5.33-16.5.37-.4.56-.9.85-.05,1.9,5.49,3.61,11.32,5.86,16.55.05.11.09.2.14.31,1.91,4.45,3.87,9.36,6.54,13.65,1.06,1.7,3.58,4.96,5.19,6.24.34.26.78.55,1.28.81,1.43.76,3.3,1.35,4.46.76.27-.14.51-.44.72-.76.18-.28.33-.57.46-.81,1.95-3.83,2.69-9.66,2.48-13.91ZM52.36,38.01c-.32-1.22-.48-2.48-.48-3.73,0-.29,0-.58.03-.86,0-.24.03-.49.06-.72.02-.2.05-.42.08-.62.03-.19.06-.39.1-.58.04-.21.08-.43.13-.64.06-.25.13-.49.19-.75,0-.04.02-.07.03-.11.09-.28.17-.55.27-.82.11-.3.22-.6.35-.9.12-.26.23-.51.36-.77.1-.19.2-.39.31-.58.15-.27.31-.53.48-.79.15-.22.3-.45.47-.66.16-.22.32-.43.48-.63.09-.1.17-.2.26-.3.09-.1.17-.19.27-.29.15-.16.29-.3.45-.45.15-.15.31-.29.48-.43s.33-.27.49-.4c.16-.14.34-.26.51-.38.06-.04.12-.08.16-.11.13-.09.25-.16.39-.24.62-.38,1.28-.7,1.98-.95.2-.08.41-.15.61-.2.2-.07.42-.13.63-.17.2-.06.42-.1.63-.14.42-.08.85-.14,1.3-.17.48-.04.95-.04,1.43,0,.88.07,1.76.27,2.6.57.09.03.17.06.26.1.21.08.44.16.65.27.16.08.32.15.48.22.48.24.94.51,1.39.81.17.12.35.23.51.36.07.05.14.1.19.15,1.29.99,2.43,2.19,3.29,3.57.5.8.84,1.63,1.19,2.48.1.22.24.43.31.65.14.49.17,1.03.21,1.54.02.17.03.34.05.5.09.74.16,1.48.19,2.22,0,.34-.08.67-.08,1,.02,1.03-.13,1.97-.45,2.94-.24.74-.47,1.48-.78,2.19-.21.49-1.05,2.34-1.68,2.17-.33-.09-1.87-1.74-2.34-2.1-1.44-1.12-3.01-2.04-4.87-2.13-.08-.41.4-.5.49-.82.08-.25.1-1.12.04-1.36-.11-.45-1.39-.04-1.24-.55l2.58-4.52c.29-.39-.23-1.42-.72-.88l-3.27,6.08-.46.12-3.93-6.88c-.44-.64-1.01.16-.69.68.97,2.04,2.84,4.21,3.72,6.21.11.23.13.44.1.7-.76.08-2.18-.32-2.57.53-.41.89.72.99.8,1.77-1.98.15-3.53,1.33-5.03,2.48-.37.28-.74.98-1.24.88-.32-.05-2.01-3.95-2.17-4.57ZM62.54,67.95c-1.27,4.56-2.83,9.05-4.24,13.56-.53.18-1.13.34-1.76.45-.21.04-.43.07-.64.1-.1.02-.19.03-.29.03-.22.02-.46.04-.69.06-.22,0-.45.02-.67.02-2.07,0-4.16-.49-5.49-1.76-.26-.25-1.09-1.56-1.41-1.33l-1.12,5.62-1.15,5.84c-.04.22-.07.46-.1.69-.04.3-.08.61-.11.91-.08.69-.13,1.39-.19,2.07-.03.32-.06.64-.1.95-.03.33-.07.65-.12.97-.11.67-.46,1.24-.69.96-.04-.05-.07-.12-.1-.2-.02-.1-.04-.2-.06-.35-.05-.4-.05-.87-.03-1.4,0-.2.02-.41.04-.62.02-.21.04-.44.07-.66.07-.72.18-1.47.31-2.24.08-.49.16-.98.24-1.45.02-.11.04-.21.06-.31.08-.41.15-.81.22-1.19.07-.38.14-.75.2-1.08.07-.34.13-.65.17-.93.06-.33.13-.66.19-.99.07-.32.14-.64.2-.96,0,0,0-.02,0-.03.07-.33.15-.66.22-.99.38-1.64.76-3.28.91-4.96-.44.05-.88.12-1.34.19-.22.04-.46.08-.68.12-.22.04-.45.07-.67.1-.3.04-.59.06-.89.06-.9,0-1.77-.2-2.55-.88-.07-.06-.13-.12-.17-.16-.06-.05-.11-.1-.15-.15-.05-.06-.09-.11-.12-.16-.09-.13-.15-.24-.18-.36-.02-.05-.03-.1-.04-.14-.08-.44.1-.88.25-1.53.1-.41.2-.84.32-1.29.44-1.64.99-3.51,1.66-5.52.12-.36.24-.73.37-1.1s.25-.74.39-1.11c.13-.37.26-.75.41-1.13.2-.54.41-1.1.62-1.66.24-.63.49-1.27.76-1.92.16-.4.32-.8.49-1.2.57-1.42,1.19-2.83,1.85-4.22.21-.49.45-.96.68-1.44.4-.8.8-1.59,1.2-2.37,1.03-1.93,2.09-3.75,3.2-5.38.21-.33.44-.64.67-.95.88-1.21,1.79-2.3,2.7-3.21l.03-.03c.47-.46.92-.86,1.39-1.22,1.41-1.1,2.98-2.15,4.86-1.96,0,.06.02.12.02.16,0,.18-.05.35-.12.53-.02.07-.05.14-.09.21-.03.07-.07.16-.11.23-.28.59-.76,1.34-1.21,2.07h0c-.03.06-.07.11-.1.16-.37.58-.73,1.14-.96,1.58-.4.75-.79,1.49-1.16,2.25-.34.66-.67,1.33-1,2.01-.03.05-.06.1-.08.15-.12.23-.23.48-.35.72-.41.85-.81,1.72-1.21,2.59-.21.45-.42.9-.62,1.36-.38.85-.75,1.7-1.11,2.56-.34.81-.67,1.61-.99,2.42-.33.82-.65,1.65-.95,2.47-.26.7-.51,1.4-.76,2.1-.04.11-.08.21-.12.32-.2.59-.41,1.19-.59,1.79-.1.3-.19.59-.29.89-.12.36-.23.72-.34,1.09-.11.35-.21.7-.31,1.05-.14.46-.26.91-.39,1.37-.17.62-.34,1.24-.49,1.85-.16.62-.31,1.23-.45,1.85-.18.81-.79,3.21-.75,3.86.02.29.34.57.52.43.24-.19.47-2.39.58-2.87.13-.52.24-1.05.38-1.57.03-.14.07-.27.11-.41.04-.19.1-.39.15-.57.13-.5.25-1,.4-1.5.11-.42.23-.83.35-1.25.36-1.31.76-2.6,1.17-3.89.21-.69.45-1.38.68-2.06,0-.02.02-.04.02-.06.03-.08.06-.16.09-.24.29-.83.59-1.67.9-2.5.32-.86.65-1.74,1-2.59.03-.1.07-.19.12-.29.29-.76.6-1.5.92-2.24l.17-.41c.37-.85.74-1.7,1.13-2.54.86-1.89,1.77-3.76,2.74-5.6.19-.38.39-.76.59-1.13.28-.53.56-1.06.85-1.58.19-.35.39-.71.59-1.06.1-.17.18-.34.28-.5.49-.85.98-1.7,1.48-2.54h0c.3-.32.61-.33.92-.16.14.07.25.17.38.3.59.59,1.13,1.72,1.4,2.4.04.1.07.18.1.26,0,.03.02.06.03.09,0,.03,0,.05.02.07.23.72.42,1.46.56,2.22.06.32.11.65.15.98.08.58.13,1.17.16,1.78.02.32.03.63.03.95,0,.18,0,.38,0,.57,0,.31,0,.61-.02.92,0,.38-.04.76-.07,1.14-.03.4-.07.81-.12,1.2-.04.41-.09.81-.15,1.22-.09.66-.18,1.31-.31,1.97-.08.44-.16.86-.24,1.29-.06.32-.13.64-.19.96-.26,1.25-.56,2.49-.87,3.7-.13.46-.24.91-.37,1.36-.24.93-.49,1.84-.74,2.72-.12.42-.23.83-.34,1.23ZM83.18,91.44c-.09-.57-.19-1.14-.3-1.71v-.03c-.11-.56-.21-1.12-.33-1.68-.11-.53-.21-1.07-.33-1.6-.12-.58-.24-1.15-.37-1.74-.04-.16-.08-.32-.11-.48-.22-1.02-.46-2.03-.68-3.05-.14-.58-.26-1.16-.39-1.76-.13-.58-.25-1.17-.38-1.76,0,0-.02-.02-.03-.02-.04-.02-.1,0-.16.04-.06.02-.12.08-.18.15-.03.03-.07.06-.1.1-.04.03-.07.07-.11.11-.1.1-.18.19-.27.3-.06.06-.11.13-.16.18-.21.25-.4.48-.49.56-2.42,2.23-6.24,2.18-9.26,1.37-.75-2.13-1.65-4.23-2.4-6.37-.06-.16-.13-.35-.19-.56-.04-.1-.08-.2-.12-.31-.13-.36-.27-.78-.43-1.22-.05-.15-.1-.29-.16-.45-.05-.16-.1-.31-.16-.47-.04-.12-.08-.23-.12-.35-.07-.23-.15-.47-.23-.71-.07-.24-.15-.48-.22-.73-.13-.39-.24-.78-.35-1.16-.49-1.7-.85-3.26-.76-3.97,0-.05,0-.1.03-.15.03-.19.07-.4.12-.6.05-.21.11-.43.17-.64.14-.46.28-.92.42-1.37.09-.31.16-.6.22-.88.85-4.14,1.81-9.01,1.26-13.48-.02-.21-.05-.42-.09-.63-.04-.24-.08-.49-.13-.74-.06-.26-.12-.52-.18-.79-.07-.27-.14-.53-.22-.79-.08-.26-.16-.52-.26-.78-.08-.22-.16-.44-.26-.65-.1-.22-.19-.44-.3-.64-.06-.11-.11-.21-.17-.32-.16-.31-.35-.62-.54-.92-.1-.14-.65-.58-.82-.93-.03-.05-.05-.1-.05-.15,0-.08,0-.15.07-.2.03-.03.06-.05.09-.06.04-.02.09-.04.15-.05.04,0,.09,0,.13,0,.03,0,.06.02.09.03.17.08.36.25.54.47.04.04.09.1.13.15.37.48.72,1.08.87,1.32.4.64.79,1.29,1.17,1.95.58,1,1.16,2.03,1.73,3.07.24.45.48.89.72,1.35.51.97,1.02,1.97,1.5,2.98.32.64.62,1.29.93,1.94.61,1.31,1.19,2.63,1.77,3.96.15.34.29.67.43,1.01.15.33.28.66.41,1,.18.45.37.89.54,1.35.18.45.36.89.52,1.34.34.9.67,1.8.99,2.7.04.1.08.18.1.27.19.52.38,1.05.55,1.58.4,1.16.77,2.32,1.12,3.46.12.39.23.78.35,1.15.38,1.28.73,2.54,1.04,3.78.13.5.2,2.41.68,2.51.19.04.37-.13.42-.29.15-.49-1.19-5.56-1.45-6.47-.15-.5-.29-1.01-.45-1.51-.15-.5-.3-1-.47-1.5-.16-.5-.32-1-.49-1.49-.16-.5-.34-1-.51-1.49-.06-.17-.12-.34-.19-.51-.17-.5-.36-1.01-.55-1.51-.07-.18-.15-.38-.22-.57-.25-.67-.52-1.33-.8-2-.19-.48-.4-.96-.6-1.45-.64-1.52-1.32-3.03-2.02-4.52-.41-.86-.82-1.72-1.25-2.57-1.27-2.56-2.62-5.08-4.02-7.56-.06-.11-.12-.21-.18-.32-.32-.57-.64-1.13-.97-1.7-.03-.05-.07-.11-.11-.17-.04-.07-.1-.15-.16-.22-.08-.12-.16-.24-.26-.38-.04-.05-.07-.1-.1-.16-.23-.33-.46-.67-.53-.82-.02-.03-.03-.06-.03-.08-.13-.78,1.82-.24,2.23-.11,1.59.54,3.01,1.84,4.2,2.98.25.24.5.49.74.74.08.08.16.16.23.24,1.17,1.24,2.19,2.58,3.13,4,.49.71.94,1.45,1.39,2.18.22.38.45.75.67,1.13,1.12,1.93,2.17,3.9,3.14,5.91.24.5.48,1.01.71,1.51.24.5.47,1.01.69,1.52.65,1.46,1.26,2.95,1.84,4.44.03.07.06.14.08.19.28.75.56,1.49.83,2.24.27.72.53,1.45.78,2.19.22.63.44,1.26.64,1.88.52,1.58,1.02,3.18,1.49,4.79-.85,2.92-4.56,2.23-6.88,1.82-.02.02-.03.11,0,.22,0,.04,0,.09,0,.14,0,.06.02.14.03.2.02.11.04.22.07.36.1.5.25,1.15.42,1.83.03.13.07.26.1.39,0,.03,0,.06.02.09.03.13.06.25.1.38.16.63.31,1.23.44,1.73.03.13.06.24.09.36,0,0,0,.03,0,.04.02.07.04.13.05.18.03.09.04.16.05.22.02.06.03.12.04.16.09.4.18.82.28,1.27.06.23.11.47.16.7.08.35.16.71.24,1.08.08.37.16.74.24,1.12.07.32.14.64.2.95.06.32.13.64.18.96.13.64.24,1.27.34,1.88.05.31.09.61.13.91.03.17.05.35.07.52.03.23.05.46.07.68.04.45.07.86.07,1.26,0,.3,0,.59-.28.79l-.59-.29c-.05-.45-.1-.88-.15-1.33-.06-.45-.12-.89-.18-1.33-.05-.38-.11-.77-.17-1.14ZM79.17,70c-.15-.5-.29-1.01-.45-1.51-.15-.5-.3-1-.47-1.5-.16-.5-.32-1-.49-1.49-.16-.5-.34-1-.51-1.49h-.87c.04.1.08.18.1.27.19.52.38,1.05.55,1.58.4,1.16.77,2.32,1.12,3.46.12.39.23.78.35,1.15.38,1.28.73,2.54,1.04,3.78.13.5.2,2.41.68,2.51.19.04.37-.13.42-.29.15-.49-1.19-5.56-1.45-6.47ZM79.17,70c-.15-.5-.29-1.01-.45-1.51-.15-.5-.3-1-.47-1.5-.16-.5-.32-1-.49-1.49-.16-.5-.34-1-.51-1.49h-.87c.04.1.08.18.1.27.19.52.38,1.05.55,1.58.4,1.16.77,2.32,1.12,3.46.12.39.23.78.35,1.15.38,1.28.73,2.54,1.04,3.78.13.5.2,2.41.68,2.51.19.04.37-.13.42-.29.15-.49-1.19-5.56-1.45-6.47ZM79.17,70c-.15-.5-.29-1.01-.45-1.51-.15-.5-.3-1-.47-1.5-.16-.5-.32-1-.49-1.49-.16-.5-.34-1-.51-1.49h-.87c.04.1.08.18.1.27.19.52.38,1.05.55,1.58.4,1.16.77,2.32,1.12,3.46.12.39.23.78.35,1.15.38,1.28.73,2.54,1.04,3.78.13.5.2,2.41.68,2.51.19.04.37-.13.42-.29.15-.49-1.19-5.56-1.45-6.47Z"/>
      <path class="cls-4" d="M76.13,34.09c.02.33-.08.66-.07,1,.02,1.03-.12,1.96-.45,2.94-.24.73-.46,1.48-.77,2.19-.22.49-1.05,2.34-1.68,2.17-.33-.09-1.87-1.73-2.34-2.1-1.44-1.12-3.01-2.03-4.86-2.13-.08-.41.4-.5.49-.83.07-.25.1-1.11.04-1.36-.11-.45-1.39-.04-1.24-.55l2.58-4.52c.29-.39-.23-1.42-.72-.88l-3.27,6.08-.45.12-3.93-6.88c-.44-.64-1.01.15-.69.68.97,2.03,2.84,4.21,3.72,6.2.11.24.13.44.1.7-.76.08-2.18-.31-2.57.54-.41.9.72.99.8,1.76-1.98.15-3.54,1.33-5.04,2.49-.36.28-.74.97-1.24.88-.32-.05-2-3.95-2.17-4.57-2.02-7.75,2.55-16.74,11.02-17.39,2.63-.2,5.23.81,7.31,2.35.06.05.13.1.19.15,1.29.99,2.42,2.2,3.29,3.57.5.79.84,1.63,1.19,2.49.09.22.24.42.3.65.14.49.18,1.03.22,1.54.01.17.03.34.04.5.09.74.16,1.48.19,2.22Z"/>
      <path class="cls-4" d="M61.52,40.1c.04.26-.01.46-.1.7-.38,1.07-1.85,3.09-2.47,4.26-4.72,8.9-8.96,18.98-11.2,28.83-.18.81-.79,3.22-.75,3.86.02.29.34.57.52.43.24-.19.47-2.39.58-2.87,2.83-12.17,7.71-23.86,14.11-34.54,1.17-1.22,2.59,2.15,2.85,2.96,2.37,7.22-.55,17.04-2.54,24.22-1.27,4.56-2.83,9.05-4.23,13.56-2.77.97-7.27,1.04-9.53-1.11-.27-.25-1.09-1.56-1.41-1.33l-2.26,11.46c-.31,1.82-.36,3.79-.62,5.58-.13.9-.71,1.6-.85.41-.26-2.31.84-7.39,1.29-9.88.48-2.65,1.29-5.25,1.55-7.93-2.07.2-4.32,1.15-6.14-.42-1-.86-.67-1.37-.4-2.49,2.18-9.13,9.31-27.99,16.73-33.75,1.41-1.09,2.99-2.15,4.87-1.95Z"/>
      <path class="cls-4" d="M71.69,42.33c2.54,2.4,4.39,5.28,6.15,8.28,4.53,7.72,7.68,16.13,10.21,24.69-.85,2.92-4.56,2.23-6.87,1.82-.22.24,1.22,5.48,1.4,6.3.69,3.2,1.95,8.17,1.98,11.32,0,.31.01.6-.28.79l-.59-.29c-.61-5.96-2.18-11.75-3.39-17.59-.24-.21-1.22,1.17-1.5,1.42-2.43,2.24-6.23,2.19-9.26,1.37-.75-2.14-1.65-4.23-2.4-6.37-.69-1.97-2.96-8.26-2.73-9.93.15-1.1.74-2.52.97-3.64,1.28-6.21,2.8-14.06-.9-19.73-.14-.22-1.45-1.2-.55-1.39.53-.11,1.47,1.52,1.75,1.97,5.93,9.58,11.1,21.97,13.87,32.89.13.5.2,2.4.68,2.51.19.04.37-.13.42-.29.15-.48-1.2-5.56-1.46-6.47-2.84-10.07-7.5-19.71-12.73-28.72-.19-.33-1.16-1.65-1.19-1.83-.13-.78,1.83-.24,2.24-.11,1.59.54,3,1.84,4.2,2.97Z"/>
      <path class="cls-5" d="M73.57,36.74s-.51.01-.53,0c-.1-.09.18-.41.18-.44v-3.36c0-.24-1.07-3.99-1.24-4.16-.19-.2-.64-.02-.71-.89-.77-.48-1.72-1.12-2.3-1.77.44.03,1.18.27,1.51.52.33.24.74.85.97,1.07.67.66.39.59.71,1.06,1.02,1.48,1.57,2.02,1.75,4.18.04.52-.1,3.57-.33,3.79Z"/>
      <path class="cls-5" d="M54.26,33.73c.08-.44-.27-1.31.44-1.42.14,0,.14,1.14.09,1.3-.05.18-.35.1-.36.12-.04.06-.05,1.53,0,1.59.12.16.26-.4.36.53.16,1.56.83,2.6,1.24,4.08-1.27-1.32-2.17-2.6-2.14-4.52.01-.59.27-1.15.37-1.68Z"/>
      <path class="cls-5" d="M66.48,27.52c-.12.11-1.67-.46-2.05-.51-.28-.03-1.94-.08-2.02-.02-.03.02.02.25,0,.35-.19.07-.33-.17-.36-.18-.11-.01-.51-.02-.53,0-.02.02.06.25-.02.32-.21.19-.66.12-.91.22-.23.09-.02.41-.3.34-.09-.93.6-.84,1.06-1.06,1.06-.51,1.66-.89,2.93-.72.31.04.24.31.39.35.13.03,2.37.4,1.81.9Z"/>
      <path class="cls-5" d="M59.57,38.51c-.58-.09-1.07-.73-1.24-1.24-.71.05-.18-.31-.18-.35,0-.12-.02-.25,0-.36-.54.1-.34-.27-.36-.61-.01-.42-.05-2,.18-2.22.25-.24.33,0,.35.26.07.62.01,1.19.18,1.86.1.4,1.21,2.48,1.06,2.66Z"/>
      <path class="cls-5" d="M69.55,24.27l-.77-.82-4.96-.53c1.56-.46,3.32-.62,4.83.04.19.08.25.28.3.31.3.17.65.11.99.52.53.65.26,1-.39.48Z"/>
    </g>
  </g>
</svg>