<?xml version="1.0" encoding="UTF-8"?>
<svg id="Layer_1" data-name="Layer 1" xmlns="http://www.w3.org/2000/svg" viewBox="0 0 128 128">
  <defs>
    <style>
      .cls-1 {
        fill: #0038a8;
      }

      .cls-2 {
        fill: #fe6bc3;
      }

      .cls-3 {
        fill: #724f96;
      }

      .cls-4 {
        fill: #d60371;
      }
    </style>
  </defs>
  <path class="cls-2" d="M126.08,30.64v66.72c0,2.78-.4,5.48-1.14,8.02h0c-3.2,11.04-12.85,19.33-24.6,20.54-.98.11-1.97.16-2.98.16H30.64c-1,0-1.98-.05-2.95-.16-2.45-.24-4.81-.81-7.04-1.64-3.2-1.18-6.14-2.93-8.68-5.11-2.43-2.08-4.52-4.57-6.13-7.35-1.18-2-2.11-4.16-2.77-6.43h0c-.39-1.31-.68-2.66-.86-4.04-.05-.33-.09-.66-.13-.99-.1-.99-.16-1.99-.16-3.01V30.64c0-1.02.06-2.02.16-3.01.04-.33.08-.66.13-.99.18-1.38.48-2.73.86-4.04.66-2.27,1.59-4.43,2.77-6.43,1.61-2.78,3.7-5.28,6.13-7.35,2.54-2.18,5.48-3.93,8.68-5.11h0c3.11-1.16,6.47-1.79,9.98-1.79h66.72c13.07,0,24.1,8.74,27.58,20.69.75,2.55,1.14,5.25,1.14,8.03Z"/>
  <g>
    <path class="cls-1" d="M126.08,77.1v20.26c0,2.78-.4,5.48-1.14,8.02h0c-3.2,11.04-12.85,19.33-24.6,20.54H27.69c-2.45-.24-4.81-.81-7.04-1.64-3.2-1.18-6.14-2.93-8.68-5.11-2.43-2.08-4.52-4.57-6.13-7.35-1.18-2-2.11-4.16-2.77-6.43h0c-.39-1.31-.68-2.66-.86-4.04-.05-.33-.09-.66-.13-.99v-23.27h124Z"/>
    <path class="cls-4" d="M126.08,30.64v19.95H2.08v-22.96c.04-.33.08-.66.13-.99.18-1.38.48-2.73.86-4.04.66-2.27,1.59-4.43,2.77-6.43,1.61-2.78,3.7-5.28,6.13-7.35,2.54-2.18,5.48-3.93,8.68-5.11h0c3.11-1.16,6.47-1.79,9.98-1.79h66.72c13.07,0,24.1,8.74,27.58,20.69.75,2.55,1.14,5.25,1.14,8.03Z"/>
    <path class="cls-3" d="M126.08,125.92v.16H30.64c-1,0-1.98-.05-2.95-.16h98.39Z"/>
    <path class="cls-3" d="M126.08,50.59v26.5H2.08v23.27c-.1-.99-.16-1.99-.16-3.01V30.64c0-1.02.06-2.02.16-3.01v22.96h124Z"/>
  </g>
</svg>