<?xml version="1.0" encoding="UTF-8"?>
<svg id="Layer_1" data-name="Layer 1" xmlns="http://www.w3.org/2000/svg" viewBox="0 0 128 128">
  <defs>
    <style>
      .cls-1 {
        fill: #e40000;
      }

      .cls-2 {
        fill: #fcd717;
      }

      .cls-3 {
        fill: #7bcbe3;
      }

      .cls-4 {
        fill: #fd8c00;
      }

      .cls-5 {
        fill: #018021;
      }

      .cls-6 {
        fill: #004dfe;
      }

      .cls-7 {
        fill: #fefdfc;
      }

      .cls-8 {
        fill: #935518;
      }

      .cls-9 {
        fill: #f2aec7;
      }

      .cls-10 {
        fill: #020101;
      }

      .cls-11 {
        fill: #feed00;
      }

      .cls-12 {
        fill: #760188;
      }

      .cls-13 {
        fill: #74d6ec;
      }
    </style>
  </defs>
  <path class="cls-13" d="M126.08,30.64v66.72c0,2.78-.4,5.48-1.14,8.02h0c-3.47,11.96-14.51,20.7-27.58,20.7H30.64c-3.51,0-6.88-.63-9.99-1.79-3.2-1.18-6.14-2.93-8.68-5.11-2.43-2.08-4.52-4.57-6.13-7.35-1.18-2-2.11-4.16-2.77-6.43h0c-.39-1.31-.68-2.66-.86-4.04-.18-1.31-.28-2.64-.28-4V30.64c0-1.36.1-2.69.28-4,.18-1.38.48-2.73.86-4.04.66-2.27,1.59-4.43,2.77-6.43,1.61-2.78,3.7-5.28,6.13-7.35,2.54-2.18,5.48-3.93,8.68-5.11h0c3.11-1.16,6.47-1.79,9.98-1.79h66.72c13.07,0,24.1,8.74,27.58,20.69.75,2.55,1.14,5.25,1.14,8.03Z"/>
  <g>
    <path class="cls-1" d="M124.94,22.61H3.06c.66-2.27,1.59-4.43,2.77-6.43,1.61-2.78,3.7-5.28,6.13-7.35,2.54-2.18,5.48-3.93,8.68-5.11h0c3.11-1.16,6.47-1.79,9.98-1.79h66.72c13.07,0,24.1,8.74,27.58,20.69Z"/>
    <path class="cls-4" d="M126.08,30.64v12.67H1.92v-12.67c0-1.36.1-2.69.28-4,.18-1.38.48-2.73.86-4.04h121.87c.75,2.55,1.14,5.25,1.14,8.03Z"/>
    <rect class="cls-11" x="1.92" y="43.31" width="124.16" height="20.69"/>
    <rect class="cls-5" x="1.92" y="64" width="124.16" height="20.69"/>
    <path class="cls-6" d="M126.08,84.69v12.67c0,2.78-.4,5.48-1.14,8.02h0s-121.87,0-121.87,0h0c-.39-1.31-.68-2.66-.86-4.04-.18-1.31-.28-2.64-.28-4v-12.67h124.16Z"/>
    <path class="cls-12" d="M124.94,105.38h0c-3.47,11.96-14.51,20.7-27.58,20.7H30.64c-3.51,0-6.88-.63-9.99-1.79-3.2-1.18-6.14-2.93-8.68-5.11-2.43-2.08-4.52-4.57-6.13-7.35-1.18-2-2.11-4.16-2.77-6.43h0s121.87,0,121.87,0Z"/>
  </g>
  <g>
    <path class="cls-10" d="M108.83,64l-20.69,20.69-20.69,20.69h0s-20.69,20.7-20.69,20.7h-16.11c-3.51,0-6.88-.63-9.99-1.79-3.2-1.18-6.14-2.93-8.68-5.11-2.43-2.08-4.52-4.57-6.13-7.35-1.18-2-2.11-4.16-2.77-6.43h0c-.39-1.31-.68-2.66-.86-4.04-.18-1.31-.28-2.64-.28-4V30.64c0-1.36.1-2.69.28-4,.18-1.38.48-2.73.86-4.04.66-2.27,1.59-4.43,2.77-6.43,1.61-2.78,3.7-5.28,6.13-7.35,2.54-2.18,5.48-3.93,8.68-5.11h0c3.11-1.16,6.47-1.79,9.98-1.79h16.11l20.69,20.69,20.7,20.69h0s20.68,20.7,20.68,20.7Z"/>
    <path class="cls-8" d="M95.04,64l-20.69,20.69-20.7,20.69h0s-20.68,20.7-20.68,20.7h-2.32c-3.51,0-6.88-.63-9.99-1.79-3.2-1.18-6.14-2.93-8.68-5.11-2.43-2.08-4.52-4.57-6.13-7.35-1.18-2-2.11-4.16-2.77-6.43h0c-.39-1.31-.68-2.66-.86-4.04-.18-1.31-.28-2.64-.28-4V30.64c0-1.36.1-2.69.28-4,.18-1.38.48-2.73.86-4.04.66-2.27,1.59-4.43,2.77-6.43,1.61-2.78,3.7-5.28,6.13-7.35,2.54-2.18,5.48-3.93,8.68-5.11h0c3.11-1.16,6.47-1.79,9.98-1.79h2.32l20.69,20.69,20.69,20.69h0s20.69,20.7,20.69,20.7Z"/>
    <path class="cls-3" d="M80.94,64l-20.69,20.69-20.69,20.69h0s-18.9,18.91-18.9,18.91c-3.2-1.18-6.14-2.93-8.68-5.11-2.43-2.08-4.52-4.57-6.13-7.35-1.18-2-2.11-4.16-2.77-6.43h0c-.39-1.31-.68-2.66-.86-4.04-.18-1.31-.28-2.64-.28-4V30.64c0-1.36.1-2.69.28-4,.18-1.38.48-2.73.86-4.04.66-2.27,1.59-4.43,2.77-6.43,1.61-2.78,3.7-5.28,6.13-7.35,2.54-2.18,5.48-3.93,8.68-5.11h0l18.89,18.9,41.39,41.39Z"/>
    <path class="cls-9" d="M67.14,64l-20.69,20.69-20.69,20.69-13.79,13.79c-2.43-2.08-4.52-4.57-6.13-7.35-1.18-2-2.11-4.16-2.77-6.43h0c-.39-1.31-.68-2.66-.86-4.04-.18-1.31-.28-2.64-.28-4V30.64c0-1.36.1-2.69.28-4,.18-1.38.48-2.73.86-4.04.66-2.27,1.59-4.43,2.77-6.43,1.61-2.78,3.7-5.28,6.13-7.35l13.78,13.78,20.7,20.69h0s20.68,20.7,20.68,20.7Z"/>
    <path class="cls-7" d="M53.65,64l-20.69,20.69-20.68,20.69h0s-6.43,6.44-6.43,6.44c-1.18-2-2.11-4.16-2.77-6.43h0c-.39-1.31-.68-2.66-.86-4.04-.18-1.31-.28-2.64-.28-4V30.64c0-1.36.1-2.69.28-4,.18-1.38.48-2.73.86-4.04.66-2.27,1.59-4.43,2.77-6.43l6.43,6.43,20.69,20.7,20.69,20.69Z"/>
    <path class="cls-2" d="M39.56,64l-20.69,20.69L2.2,101.35c-.18-1.31-.28-2.64-.28-4V30.64c0-1.36.1-2.69.28-4l16.66,16.66,20.69,20.69Z"/>
  </g>
  <path class="cls-12" d="M16.61,50.21c-7.12,0-12.91,5.79-12.91,12.9,0,.3,0,.6.03.89.46,6.7,6.06,12.02,12.88,12.02s12.42-5.32,12.87-12.02c.02-.29.03-.59.03-.89,0-7.11-5.79-12.9-12.9-12.9ZM16.61,72.58c-4.93,0-8.98-3.77-9.43-8.58-.03-.29-.05-.59-.05-.89,0-5.22,4.25-9.47,9.48-9.47s9.47,4.25,9.47,9.47c0,.3,0,.6-.04.89-.46,4.81-4.51,8.58-9.43,8.58Z"/>
</svg>