<?xml version="1.0" encoding="UTF-8"?>
<svg id="Layer_1" data-name="Layer 1" xmlns="http://www.w3.org/2000/svg" viewBox="0 0 128 128">
  <defs>
    <style>
      .cls-1 {
        fill: #740685;
      }

      .cls-2 {
        fill: #fe6bc3;
      }

      .cls-3 {
        fill: #e30203;
      }

      .cls-4 {
        fill: #fd8b00;
      }

      .cls-5 {
        fill: #fceb01;
      }

      .cls-6 {
        fill: #010000;
      }

      .cls-7 {
        fill: #fdafc8;
      }

      .cls-8 {
        fill: #014cfd;
      }

      .cls-9 {
        fill: #603915;
      }

      .cls-10 {
        fill: #fefefe;
      }

      .cls-11 {
        fill: #74d6ec;
      }

      .cls-12 {
        fill: #007f26;
      }
    </style>
  </defs>
  <path class="cls-2" d="M126.08,30.64v66.72c0,2.78-.4,5.48-1.14,8.02h0c-.17.6-.36,1.19-.58,1.77-4,11.04-14.58,18.93-27,18.93H30.64c-2.96,0-5.81-.45-8.5-1.29-.5-.16-1-.32-1.49-.5-3.2-1.18-6.14-2.93-8.68-5.11-.12-.1-.22-.19-.34-.31-2.29-2-4.26-4.38-5.79-7.04-.44-.74-.83-1.49-1.2-2.27-.63-1.33-1.15-2.73-1.57-4.16h0c-.39-1.31-.68-2.66-.86-4.04-.18-1.31-.28-2.64-.28-4V30.64c0-1.36.1-2.69.28-4,.18-1.38.48-2.73.86-4.04.41-1.4.92-2.76,1.53-4.06.37-.81.79-1.6,1.24-2.37,1.55-2.68,3.54-5.08,5.86-7.11.09-.09.17-.16.27-.24,2.54-2.18,5.48-3.93,8.68-5.11h0c.52-.19,1.06-.38,1.6-.53,2.65-.82,5.46-1.26,8.38-1.26h66.72c12.42,0,23,7.9,27,18.93.21.57.4,1.16.57,1.76.75,2.55,1.14,5.25,1.14,8.03Z"/>
  <path class="cls-2" d="M126.08,30.64v66.72c0,2.78-.4,5.48-1.14,8.02h0c-.17.6-.36,1.19-.58,1.77-4,11.04-14.58,18.93-27,18.93H30.64c-2.96,0-5.81-.45-8.5-1.29-.5-.16-1-.32-1.49-.5-3.2-1.18-6.14-2.93-8.68-5.11-.12-.1-.22-.19-.34-.31-2.29-2-4.26-4.38-5.79-7.04-.44-.74-.83-1.49-1.2-2.27-.63-1.33-1.15-2.73-1.57-4.16h0c-.39-1.31-.68-2.66-.86-4.04-.18-1.31-.28-2.64-.28-4V30.64c0-1.36.1-2.69.28-4,.18-1.38.48-2.73.86-4.04.41-1.4.92-2.76,1.53-4.06.37-.81.79-1.6,1.24-2.37,1.55-2.68,3.54-5.08,5.86-7.11.09-.09.17-.16.27-.24,2.54-2.18,5.48-3.93,8.68-5.11h0c.52-.19,1.06-.38,1.6-.53,2.65-.82,5.46-1.26,8.38-1.26h66.72c12.42,0,23,7.9,27,18.93.21.57.4,1.16.57,1.76.75,2.55,1.14,5.25,1.14,8.03Z"/>
  <path class="cls-11" d="M5.59,2.96c-.09.05-.17.11-.26.16.09-.07.17-.13.26-.17.11-.06.21-.12.32-.16l-.32.17Z"/>
  <path class="cls-11" d="M126.08,30.64v66.72c0,2.78-.4,5.48-1.14,8.02h0c-.17.6-.36,1.19-.58,1.77-4,11.04-14.58,18.93-27,18.93H30.64c-2.96,0-5.81-.45-8.5-1.29-.5-.16-1-.32-1.49-.5-3.2-1.18-6.14-2.93-8.68-5.11-.12-.1-.22-.19-.34-.31-2.29-2-4.26-4.38-5.79-7.04-.44-.74-.83-1.49-1.2-2.27-.63-1.33-1.15-2.73-1.57-4.16h0c-.39-1.31-.68-2.66-.86-4.04-.18-1.31-.28-2.64-.28-4V30.64c0-1.36.1-2.69.28-4,.18-1.38.48-2.73.86-4.04.41-1.4.92-2.76,1.53-4.06.37-.81.79-1.6,1.24-2.37,1.55-2.68,3.54-5.08,5.86-7.11.09-.09.17-.16.27-.24,2.54-2.18,5.48-3.93,8.68-5.11h0c.52-.19,1.06-.38,1.6-.53,2.65-.82,5.46-1.26,8.38-1.26h66.72c12.42,0,23,7.9,27,18.93.21.57.4,1.16.57,1.76.75,2.55,1.14,5.25,1.14,8.03Z"/>
  <g>
    <path class="cls-9" d="M82.77,63.92l-60.62,60.87c-.5-.16-1-.32-1.49-.5-3.2-1.18-6.14-2.93-8.68-5.11-.12-.1-.22-.19-.34-.31l54.99-54.91L11.7,9.07c.09-.09.17-.16.27-.24,2.54-2.18,5.48-3.93,8.68-5.11h0c.52-.19,1.06-.38,1.6-.53l60.51,60.74Z"/>
    <path class="cls-6" d="M98.92,64c-6.49,6.8-13.42,13.18-19.97,19.92-.42.43-.85,1.04-1.29,1.49l-.25.06c-7.13,7.03-14.11,14.31-21.17,21.36-6.12,6.12-12.41,12.23-18.55,18.39-.23.23-.66.51-.7.85h-6.35c-2.96,0-5.81-.45-8.5-1.29l60.62-60.87L22.26,3.18c2.65-.82,5.46-1.26,8.38-1.26h6.35c1.55,1.8,3.39,3.34,5.06,5.02,4.68,4.69,9.34,9.38,14.03,14.06l21.57,21.57c7.11,7.11,14.18,14.28,21.26,21.42Z"/>
    <path class="cls-11" d="M66.62,63.95L11.63,118.86c-2.29-2-4.26-4.38-5.79-7.04-.44-.74-.83-1.49-1.2-2.27l44.42-44.36c.09-.11,0-.41.1-.52.05-.06.13-.13.21-.2.18-.15.42-.31.55-.46.09-.1.13-.17.12-.24L4.6,18.55c.37-.81.79-1.6,1.24-2.37,1.55-2.68,3.54-5.08,5.86-7.11l54.92,54.88Z"/>
    <path class="cls-3" d="M124.36,20.85l-68.28.16c-4.69-4.69-9.35-9.37-14.03-14.06-1.67-1.69-3.51-3.22-5.06-5.02h60.36c12.42,0,23,7.9,27,18.93Z"/>
    <path class="cls-7" d="M50.03,63.77c0,.07-.03.15-.12.24-.14.15-.37.31-.55.46-.09.08-.16.15-.21.2-.09.12,0,.42-.1.52L4.64,109.55c-.63-1.33-1.15-2.73-1.57-4.16h0c-.39-1.31-.68-2.66-.86-4.04-.18-1.31-.28-2.64-.28-4v-1.54l32.12-31.87L1.92,32.03v-1.39c0-1.36.1-2.69.28-4,.18-1.38.48-2.73.86-4.04.41-1.4.92-2.76,1.53-4.06l45.44,45.22Z"/>
    <polygon class="cls-10" points="1.92 32.03 34.03 63.94 1.92 95.82 1.92 32.03"/>
    <path class="cls-1" d="M124.35,107.15c-4,11.04-14.58,18.93-27,18.93h-60.36c.04-.34.47-.62.7-.85,6.14-6.16,12.43-12.27,18.55-18.39l.53.31h67.58Z"/>
    <path class="cls-8" d="M126.08,85.42v11.94c0,2.78-.4,5.48-1.14,8.02h0c-.17.6-.36,1.19-.58,1.77H56.77l-.53-.31c7.05-7.05,14.04-14.33,21.17-21.36l.25-.06h48.42Z"/>
    <path class="cls-4" d="M126.08,30.64v11.79l-48.42.16-21.57-21.57,68.28-.16c.21.57.4,1.16.57,1.76.75,2.55,1.14,5.25,1.14,8.03Z"/>
    <path class="cls-5" d="M126.08,42.43c0,7.19,0,14.38,0,21.57h-27.16c-7.08-7.14-14.15-14.31-21.26-21.42l48.42-.16Z"/>
    <path class="cls-12" d="M126.08,64c0,7.14,0,14.28,0,21.42h-48.42c.43-.45.87-1.06,1.3-1.5,6.55-6.73,13.48-13.12,19.97-19.92h27.16Z"/>
  </g>
</svg>