<?xml version="1.0" encoding="UTF-8"?>
<svg id="Layer_1" data-name="Layer 1" xmlns="http://www.w3.org/2000/svg" viewBox="0 0 128 128">
  <defs>
    <style>
      .cls-1 {
        fill: #b7f382;
      }

      .cls-2 {
        fill: #010101;
      }

      .cls-3 {
        fill: #fe6bc3;
      }

      .cls-4 {
        fill: #b9b9b9;
      }

      .cls-5 {
        fill: #fefefe;
      }
    </style>
  </defs>
  <path class="cls-3" d="M126.08,30.64v66.72c0,2.78-.4,5.48-1.14,8.02h0c-.29,1.02-.64,2.01-1.04,2.96-4.32,10.42-14.58,17.74-26.54,17.74H30.64c-3.51,0-6.88-.63-9.99-1.79-3.2-1.18-6.14-2.93-8.68-5.11-2.43-2.08-4.52-4.57-6.13-7.35-.66-1.12-1.24-2.28-1.74-3.48-.4-.96-.75-1.94-1.04-2.95h0c-.39-1.31-.68-2.66-.86-4.04-.18-1.31-.28-2.64-.28-4V30.64c0-1.36.1-2.69.28-4,.18-1.38.48-2.73.86-4.04.29-1.01.64-1.99,1.04-2.95.49-1.2,1.08-2.37,1.74-3.48,1.61-2.78,3.7-5.28,6.13-7.35,2.54-2.18,5.48-3.93,8.68-5.11h0c3.11-1.16,6.47-1.79,9.98-1.79h66.72c11.96,0,22.22,7.32,26.54,17.74.4.95.75,1.94,1.04,2.95.75,2.55,1.14,5.25,1.14,8.03Z"/>
  <g>
    <path class="cls-2" d="M123.9,19.66H4.1c.49-1.2,1.08-2.37,1.74-3.48,1.61-2.78,3.7-5.28,6.13-7.35,2.54-2.18,5.48-3.93,8.68-5.11h0c3.11-1.16,6.47-1.79,9.98-1.79h66.72c11.96,0,22.22,7.32,26.54,17.74Z"/>
    <path class="cls-4" d="M126.08,30.64v6.75H1.92v-6.75c0-1.36.1-2.69.28-4,.18-1.38.48-2.73.86-4.04.29-1.01.64-1.99,1.04-2.95h119.8c.4.95.75,1.94,1.04,2.95.75,2.55,1.14,5.25,1.14,8.03Z"/>
    <rect class="cls-5" x="1.92" y="37.39" width="124.16" height="17.74"/>
    <rect class="cls-1" x="1.92" y="55.13" width="124.16" height="17.74"/>
    <rect class="cls-5" x="1.92" y="72.87" width="124.16" height="17.74"/>
    <path class="cls-4" d="M126.08,90.61v6.75c0,2.78-.4,5.48-1.14,8.02h0c-.29,1.02-.64,2.01-1.04,2.96H4.1c-.4-.96-.75-1.94-1.04-2.95h0c-.39-1.31-.68-2.66-.86-4.04-.18-1.31-.28-2.64-.28-4v-6.75h124.16Z"/>
    <path class="cls-2" d="M123.9,108.34c-4.32,10.42-14.58,17.74-26.54,17.74H30.64c-3.51,0-6.88-.63-9.99-1.79-3.2-1.18-6.14-2.93-8.68-5.11-2.43-2.08-4.52-4.57-6.13-7.35-.66-1.12-1.24-2.28-1.74-3.48h119.8Z"/>
  </g>
</svg>